<?xml version="1.0" encoding="UTF-8"?>
<svg version="1.1" xmlns="http://www.w3.org/2000/svg" width="527" height="422">
<path d="M0 0 C173.91 0 347.82 0 527 0 C527 139.26 527 278.52 527 422 C353.09 422 179.18 422 0 422 C0 282.74 0 143.48 0 0 Z " fill="#F4F3EC" transform="translate(0,0)"/>
<path d="M0 0 C1.85389263 1.73149972 3.63045191 3.49884228 5.375 5.33984375 C7.08099913 7.08275151 8.87992354 8.62281909 10.75 10.1875 C35.57029596 31.70161754 55.24034386 63.88412637 58 97 C58.33 97.99 58.66 98.98 59 100 C59.66386719 99.71125 60.32773437 99.4225 61.01171875 99.125 C61.89472656 98.75375 62.77773438 98.3825 63.6875 98 C64.55761719 97.62875 65.42773438 97.2575 66.32421875 96.875 C69.10240431 95.96651304 71.10064436 95.68388627 74 96 C76 98 76 98 76 102 C73.05618512 103.67128932 70.82616606 104.27731759 67.453125 104.4140625 C66.60878906 104.45273438 65.76445312 104.49140625 64.89453125 104.53125 C64.02183594 104.5621875 63.14914062 104.593125 62.25 104.625 C61.36183594 104.66367188 60.47367188 104.70234375 59.55859375 104.7421875 C57.3726002 104.83620873 55.18660938 104.92186143 53 105 C53 105.66 53 106.32 53 107 C54.32 107.33 55.64 107.66 57 108 C51.555 108.99 51.555 108.99 46 110 C48.79947917 110.16276042 51.59895833 110.32552083 54.3984375 110.48828125 C55.25695312 110.65714844 56.11546875 110.82601562 57 111 C60.08304698 115.62457047 58.69279695 119.84044504 58 125.1875 C57.86118408 126.26652588 57.72236816 127.34555176 57.5793457 128.45727539 C55.20188879 145.17419741 49.17663869 159.89397596 36 171 C19.72066478 182.65952387 3.50883194 183.3125993 -15.76074219 183.90039062 C-17.78765138 183.96271946 -19.81440126 184.03079551 -21.84082031 184.10742188 C-52.97157392 185.22452691 -85.26079257 180.59031925 -109.4375 159.5 C-110.97947556 158.02174244 -112.50157168 156.52238188 -114 155 C-114.69480469 154.30390625 -115.38960937 153.6078125 -116.10546875 152.890625 C-124.09327283 144.42386168 -135 130.19307646 -135 118 C-137.31 118 -139.62 118 -142 118 C-142.125 115.625 -142.125 115.625 -142 113 C-141.01 112.01 -141.01 112.01 -140 111 C-139.01 111 -138.02 111 -137 111 C-137 110.34 -137 109.68 -137 109 C-139.31 109 -141.62 109 -144 109 C-144 108.34 -144 107.68 -144 107 C-142.02 107 -140.04 107 -138 107 C-138 106.34 -138 105.68 -138 105 C-139.09699219 105.03480469 -140.19398438 105.06960937 -141.32421875 105.10546875 C-142.77863045 105.13361865 -144.2330588 105.16091752 -145.6875 105.1875 C-146.40873047 105.21263672 -147.12996094 105.23777344 -147.87304688 105.26367188 C-152.47589338 105.32672457 -155.30307233 104.77816458 -159 102 C-158.67 100.35 -158.34 98.7 -158 97 C-148.58997722 96.6309795 -148.58997722 96.6309795 -144 99 C-143.67 97.68 -143.34 96.36 -143 95 C-142.34 95 -141.68 95 -141 95 C-141.02094727 94.01418945 -141.04189453 93.02837891 -141.06347656 92.01269531 C-141.78943973 54.5201175 -141.78943973 54.5201175 -137 39 C-136.78569336 38.29584961 -136.57138672 37.59169922 -136.35058594 36.86621094 C-130.07866008 17.0096771 -119.02508965 -0.64740022 -100.0546875 -10.53515625 C-92.60973317 -13.78115634 -84.82811398 -15.89349224 -77 -18 C-75.79601562 -18.35449219 -74.59203125 -18.70898438 -73.3515625 -19.07421875 C-46.87830107 -26.38676299 -20.36143793 -17.29627523 0 0 Z " fill="#F0DB8F" transform="translate(303,77)"/>
<path d="M0 0 C1.32 0 2.64 0 4 0 C3.76990234 1.30130859 3.76990234 1.30130859 3.53515625 2.62890625 C2.66917066 8.69080536 2.63300585 14.82553841 2.4375 20.9375 C2.37272461 22.82178711 2.37272461 22.82178711 2.30664062 24.74414062 C2.20106381 27.82932968 2.09895449 30.91459263 2 34 C2.66 34 3.32 34 4 34 C4 33.01 4 32.02 4 31 C5.2065625 31.0309375 5.2065625 31.0309375 6.4375 31.0625 C8.93354885 31.29633621 8.93354885 31.29633621 10 30 C13.31652092 29.53568707 15.87204531 29.38560472 18.87890625 31.0234375 C26.97658144 37.35466519 28.50648265 46.75301465 31.0065918 56.19873047 C32.8566141 62.95953032 35.60997038 68.8672831 39 75 C40.11641439 77.11859103 41.22069209 79.2436238 42.3125 81.375 C42.80363281 82.31085938 43.29476562 83.24671875 43.80078125 84.2109375 C47.5421739 92.91241747 47.43030668 105.43290116 45.09375 114.52734375 C43.90319325 117.49228797 42.57463881 120.22147067 41 123 C40.33097656 124.21236328 40.33097656 124.21236328 39.6484375 125.44921875 C33.70091095 135.23439511 24.70016368 142.10903139 14 146 C14.33 146.66 14.66 147.32 15 148 C12.69 148.33 10.38 148.66 8 149 C8 148.67 8 148.34 8 148 C6.73285156 147.96261719 5.46570313 147.92523438 4.16015625 147.88671875 C2.46091069 147.82100207 0.7616932 147.75455677 -0.9375 147.6875 C-2.18370117 147.65366211 -2.18370117 147.65366211 -3.45507812 147.61914062 C-14.87737147 147.13024869 -27.38179006 142.64804988 -35.875 134.8125 C-44.1061305 125.69586891 -47.57010157 114.97403647 -47.234375 102.87109375 C-46.27385422 91.10471422 -41.24263016 82.67093706 -35 73 C-29.8620301 64.89649042 -25.91264972 56.71174847 -22.859375 47.59375 C-20.66079614 41.2032141 -18.51243541 36.61659962 -13.453125 32.07421875 C-9.7082481 30.43434431 -6.02889998 30.79076969 -2 31 C-2.01571045 30.22285645 -2.0314209 29.44571289 -2.04760742 28.64501953 C-2.10980351 25.1384198 -2.14894207 21.63193587 -2.1875 18.125 C-2.21263672 16.90167969 -2.23777344 15.67835937 -2.26367188 14.41796875 C-2.27333984 13.25136719 -2.28300781 12.08476563 -2.29296875 10.8828125 C-2.3086792 9.80402832 -2.32438965 8.72524414 -2.34057617 7.61376953 C-2.17199097 6.31995361 -2.17199097 6.31995361 -2 5 C-1.01 4.34 -0.02 3.68 1 3 C0.34 3 -0.32 3 -1 3 C-0.67 2.01 -0.34 1.02 0 0 Z " fill="#ECD78D" transform="translate(262,79)"/>
<path d="M0 0 C0.763125 0.226875 1.52625 0.45375 2.3125 0.6875 C3.4375 5.4375 3.4375 5.4375 2.3125 7.6875 C2.16027027 9.35315749 2.06332785 11.02406496 1.99609375 12.6953125 C1.95419922 13.68144531 1.91230469 14.66757813 1.86914062 15.68359375 C1.82982422 16.71613281 1.79050781 17.74867187 1.75 18.8125 C1.68522461 20.37291016 1.68522461 20.37291016 1.61914062 21.96484375 C1.5128712 24.53892528 1.41083417 27.11310508 1.3125 29.6875 C3.20429203 30.3689823 3.20429203 30.3689823 5.3125 30.6875 C5.9725 30.0275 6.6325 29.3675 7.3125 28.6875 C11.09133293 28.1722046 12.98484362 28.51364151 16.375 30.3125 C23.64383173 36.18942778 26.5980928 42.49055851 28.6875 51.3125 C31.20166204 61.69147662 35.22331067 71.08993427 40.5456543 80.31176758 C46.25488925 90.44583432 47.28995457 103.39723642 44.87744141 114.73144531 C43.09089271 120.85721211 40.29751011 126.70623736 36.3125 131.6875 C35.72082031 132.45578125 35.12914062 133.2240625 34.51953125 134.015625 C28.91199282 140.8386408 22.61647105 145.54095137 14.3125 148.6875 C10.91796875 148.8671875 10.91796875 148.8671875 8.3125 148.6875 C10.64233709 146.73043685 12.66509692 145.54231303 15.5 144.375 C27.61681964 139.34146036 35.30616603 130.65020064 40.3125 118.6875 C42.38178369 113.61162642 42.61653247 109.20674151 42.5625 103.8125 C42.57023437 103.04808594 42.57796875 102.28367187 42.5859375 101.49609375 C42.55841954 93.39205498 40.77773641 87.07028953 37 79.875 C36.3700053 78.64508818 35.7411079 77.4146137 35.11328125 76.18359375 C34.51902344 75.02988281 33.92476563 73.87617188 33.3125 72.6875 C29.930112 66.10273906 27.67647048 59.63834874 25.8125 52.5 C23.86458544 45.07381417 21.81376303 39.42218056 16.4375 33.6875 C12.11314486 31.65250935 7.77082081 32.53163905 3.3125 33.6875 C2.6525 33.3575 1.9925 33.0275 1.3125 32.6875 C1.3125 33.6775 1.3125 34.6675 1.3125 35.6875 C0.6525 35.6875 -0.0075 35.6875 -0.6875 35.6875 C-0.7458721 31.33339022 -0.78122173 26.97938207 -0.8125 22.625 C-0.82925781 21.39587891 -0.84601563 20.16675781 -0.86328125 18.90039062 C-0.89626483 12.78193607 -0.85959842 7.44270567 1.3125 1.6875 C-0.66286745 2.03536708 -0.66286745 2.03536708 -2.6875 2.6875 C-3.0175 3.3475 -3.3475 4.0075 -3.6875 4.6875 C-2.3675 4.3575 -1.0475 4.0275 0.3125 3.6875 C-0.3475 4.6775 -1.0075 5.6675 -1.6875 6.6875 C-2.6775 6.6875 -3.6675 6.6875 -4.6875 6.6875 C-4.44 8.358125 -4.44 8.358125 -4.1875 10.0625 C-3.29238185 17.89163196 -3.61112242 25.82060946 -3.6875 33.6875 C-4.32816406 33.61789063 -4.96882813 33.54828125 -5.62890625 33.4765625 C-10.0545812 33.19954559 -13.73988445 33.08273126 -17.4375 35.75 C-22.45741516 40.7226689 -24.37691891 48.17030216 -26.6875 54.6875 C-30.0102679 63.77399222 -34.49368626 71.83219859 -39.8125 79.91796875 C-47.10307521 91.1352692 -50.47442263 102.08509238 -48.21875 115.46875 C-45.77838908 125.81123199 -40.64500786 134.74481679 -31.6875 140.6875 C-24.08935351 144.75333626 -17.2492845 147.63269944 -8.60546875 148.00390625 C-7.67412109 148.04580078 -6.74277344 148.08769531 -5.78320312 148.13085938 C-4.82349609 148.17017578 -3.86378906 148.20949219 -2.875 148.25 C-1.89595703 148.29318359 -0.91691406 148.33636719 0.09179688 148.38085938 C2.49857027 148.4865226 4.90543983 148.58862327 7.3125 148.6875 C4.42457701 151.57542299 2.06323157 150.97864828 -1.88867188 151.00976562 C-2.83291016 151.00654297 -3.77714844 151.00332031 -4.75 151 C-5.66716797 151.01611328 -6.58433594 151.03222656 -7.52929688 151.04882812 C-20.02909923 151.05768695 -30.19769389 146.0701667 -39.375 137.6875 C-48.74676147 127.59868205 -51.67318163 118.12298637 -51.37255859 104.65258789 C-50.71340854 92.19851659 -45.15030495 83.58548336 -38.70898438 73.25341797 C-34.39931596 66.33134201 -30.9900335 59.40494508 -28.2734375 51.7109375 C-22.56916053 35.63642146 -22.56916053 35.63642146 -15.7734375 31.53125 C-13.48420853 30.60526974 -11.89213874 30.48067871 -9.4375 30.5625 C-8.2 30.60375 -6.9625 30.645 -5.6875 30.6875 C-5.6875 25.7375 -5.6875 20.7875 -5.6875 15.6875 C-14.73143013 17.39407841 -14.73143013 17.39407841 -21.6875 22.6875 C-22.07656481 25.58739002 -22.20017864 28.46042433 -22.3359375 31.3828125 C-23.09307987 38.49995082 -25.7510439 45.44265345 -31.1875 50.25 C-33.17508825 51.72993584 -35.1795067 52.98036113 -37.3125 54.25 C-39.88964078 55.68070117 -39.88964078 55.68070117 -42.3125 58.3125 C-45.28947512 61.28947512 -46.96408819 61.62173529 -51.125 62 C-56.95723089 61.9672959 -62.2883365 59.70318771 -67.6875 57.6875 C-67.6875 57.0275 -67.6875 56.3675 -67.6875 55.6875 C-66.93984375 55.24277344 -66.1921875 54.79804688 -65.421875 54.33984375 C-62.5065359 52.57814598 -61.00173208 50.93614815 -58.9375 48.25 C-58.25300781 47.36828125 -57.56851563 46.4865625 -56.86328125 45.578125 C-55.37140921 43.5961047 -53.89014818 41.60606586 -52.41796875 39.609375 C-40.52546717 23.48257558 -40.52546717 23.48257558 -28.6875 20.6875 C-21.44014995 18.63323352 -13.79355891 16.1659186 -7.6875 11.6875 C-6.51326747 9.2515921 -6.14924174 7.42533228 -5.99609375 4.73828125 C-5.6875 2.6875 -5.6875 2.6875 -4.328125 0.8984375 C-2.6875 -0.3125 -2.6875 -0.3125 0 0 Z " fill="#475842" transform="translate(264.6875,77.3125)"/>
<path d="M0 0 C3.15497204 2.83317888 4.58235239 5.48358611 5.265625 9.66796875 C5.44333201 19.64325546 5.44333201 19.64325546 2.07421875 23.70703125 C0.390625 25.28125 0.390625 25.28125 -1.23828125 26.58203125 C-1.98078125 27.22140625 -2.72328125 27.86078125 -3.48828125 28.51953125 C-7.68385822 30.14054963 -11.79425573 29.815019 -16.23828125 29.58203125 C-16.23828125 28.92203125 -16.23828125 28.26203125 -16.23828125 27.58203125 C-16.98078125 27.39640625 -17.72328125 27.21078125 -18.48828125 27.01953125 C-22.30087745 25.02658323 -23.94798654 22.57711487 -25.23828125 18.58203125 C-25.9954616 12.86876135 -26.06524771 8.20744809 -23.42578125 3.01953125 C-22.70390625 2.21515625 -21.98203125 1.41078125 -21.23828125 0.58203125 C-20.74328125 -0.01609375 -20.24828125 -0.61421875 -19.73828125 -1.23046875 C-13.68473242 -6.02286158 -5.82292456 -3.72052989 0 0 Z " fill="#ECEDE6" transform="translate(250.23828125,280.41796875)"/>
<path d="M0 0 C2.57886848 0.28123463 3.69953425 0.65222335 5.4140625 2.63671875 C7.8125508 6.69867474 9.56723417 10.48127701 11 15 C11.66 15.33 12.32 15.66 13 16 C13 14.02 13 12.04 13 10 C13.66 10 14.32 10 15 10 C15.99 12.97 16.98 15.94 18 19 C18 18.01 18 17.02 18 16 C18 14.33333333 18 12.66666667 18 11 C19.32 10.67 20.64 10.34 22 10 C24.41914241 14.39905505 25.67913324 18.39087459 26.625 23.3125 C27.1099266 27.47844558 27.1099266 27.47844558 29 31 C29.66 29.68 30.32 28.36 31 27 C31.66 29.64 32.32 32.28 33 35 C33.433125 33.1128125 33.433125 33.1128125 33.875 31.1875 C34.57303539 28.1460601 35.20446585 26.69330122 37 24 C40.875 24.875 40.875 24.875 42 26 C42.48916597 30.01116099 41.90415991 32.47906116 40 35.9375 C37.84164825 39.88181183 37.6293489 42.55218677 38 47 C35.97668546 45.16938208 35.01422377 44.03867454 34.0546875 41.4296875 C32.27886787 38.82780507 32.27886787 38.82780507 29.82250977 38.53295898 C27.01935002 38.35272066 24.24642655 38.30314315 21.4375 38.3125 C19.51944307 38.29595405 17.60143264 38.2716002 15.68359375 38.23828125 C14.40826782 38.2388855 14.40826782 38.2388855 13.10717773 38.23950195 C11 38 11 38 9 36 C9.375 33.375 9.375 33.375 10 31 C16.09781001 30.77915376 21.21642935 30.98832325 27 33 C26.071875 32.38125 26.071875 32.38125 25.125 31.75 C22.89326974 29.91210449 22.2339319 28.55012592 21 26 C20.01 25.34 19.02 24.68 18 24 C18 23.34 18 22.68 18 22 C16.54119891 22.14107747 15.08296449 22.28802415 13.625 22.4375 C12.81289062 22.51871094 12.00078125 22.59992188 11.1640625 22.68359375 C8.95727195 22.89090114 8.95727195 22.89090114 7 24 C5.12620395 24.07033769 3.24998898 24.0843022 1.375 24.0625 C0.37210938 24.05347656 -0.63078125 24.04445312 -1.6640625 24.03515625 C-2.43492187 24.02355469 -3.20578125 24.01195312 -4 24 C-3.67 22.35 -3.34 20.7 -3 19 C-1.68 18.67 -0.36 18.34 1 18 C1 17.34 1 16.68 1 16 C-1.31 16 -3.62 16 -6 16 C-6 15.34 -6 14.68 -6 14 C-4.02 14 -2.04 14 0 14 C0 13.34 0 12.68 0 12 C-1.09699219 12.03480469 -2.19398438 12.06960937 -3.32421875 12.10546875 C-4.77863045 12.13361865 -6.2330588 12.16091752 -7.6875 12.1875 C-8.7693457 12.22520508 -8.7693457 12.22520508 -9.87304688 12.26367188 C-14.47589338 12.32672457 -17.30307233 11.77816458 -21 9 C-20.67 7.35 -20.34 5.7 -20 4 C-11.76434583 3.52486611 -11.76434583 3.52486611 -8.6875 5.4375 C-7.8521875 6.2109375 -7.8521875 6.2109375 -7 7 C-4.85266073 7.70514846 -4.85266073 7.70514846 -3 8 C-3 7.34 -3 6.68 -3 6 C-2.34 6 -1.68 6 -1 6 C-1.020625 5.195625 -1.04125 4.39125 -1.0625 3.5625 C-1 1 -1 1 0 0 Z " fill="#1A3631" transform="translate(165,170)"/>
<path d="M0 0 C-0.165 0.94875 -0.33 1.8975 -0.5 2.875 C-1.0526635 5.80168901 -1.0526635 5.80168901 -1 8 C-0.01 7.34 0.98 6.68 2 6 C2.495 6.99 2.495 6.99 3 8 C3.66386719 7.6390625 4.32773437 7.278125 5.01171875 6.90625 C5.89472656 6.4421875 6.77773438 5.978125 7.6875 5.5 C8.55761719 5.0359375 9.42773438 4.571875 10.32421875 4.09375 C13.16005428 2.93457635 14.97134465 2.62851246 18 3 C20 5 20 5 20 9 C17.05618512 10.67128932 14.82616606 11.27731759 11.453125 11.4140625 C10.60878906 11.45273438 9.76445312 11.49140625 8.89453125 11.53125 C8.02183594 11.5621875 7.14914062 11.593125 6.25 11.625 C5.36183594 11.66367188 4.47367187 11.70234375 3.55859375 11.7421875 C1.3726002 11.83620873 -0.81339062 11.92186143 -3 12 C-3 12.66 -3 13.32 -3 14 C-1.68 14.33 -0.36 14.66 1 15 C-2.63 15.66 -6.26 16.32 -10 17 C-7.20052083 17.16276042 -4.40104167 17.32552083 -1.6015625 17.48828125 C-0.74304688 17.65714844 0.11546875 17.82601562 1 18 C3 21 3 21 3 24 C-4.47093223 24.29883729 -11.63044989 23.15925507 -19 22 C-19.33 22.99 -19.66 23.98 -20 25 C-20.99 25.66 -21.98 26.32 -23 27 C-23.33 27.99 -23.66 28.98 -24 30 C-25.5625 31.6875 -25.5625 31.6875 -27 33 C-26.21625 32.67 -25.4325 32.34 -24.625 32 C-20.00638131 30.72589829 -15.75750644 30.83076064 -11 31 C-10.34 32.32 -9.68 33.64 -9 35 C-14.23354992 39.08602975 -19.73451934 38.33454404 -26.05078125 38.08789062 C-28.5908378 38.10589103 -30.58628285 38.19412632 -33 39 C-35.25008527 41.41806932 -36.67143932 43.98981962 -38 47 C-39 44 -39 44 -39.375 41.1875 C-39.85839849 37.92692718 -39.85839849 37.92692718 -41.5625 35 C-43.15517651 31.67615337 -43.4135212 29.63898658 -43 26 C-42.34 25.34 -41.68 24.68 -41 24 C-39 24.125 -39 24.125 -37 25 C-34.85150175 28.0531291 -34.49698389 31.35545149 -34 35 C-33.83081732 33.41693353 -33.66476064 31.83353281 -33.5 30.25 C-33.4071875 29.36828125 -33.314375 28.4865625 -33.21875 27.578125 C-32.94363687 24.76695165 -32.94363687 24.76695165 -33 21 C-32.01 21 -31.02 21 -30 21 C-30 23.97 -30 26.94 -30 30 C-29.34 30 -28.68 30 -28 30 C-27.89042969 29.05898437 -27.78085937 28.11796875 -27.66796875 27.1484375 C-27.50941406 25.90320313 -27.35085938 24.65796875 -27.1875 23.375 C-27.03667969 22.14523438 -26.88585937 20.91546875 -26.73046875 19.6484375 C-25.99596311 15.97983712 -24.82366115 13.24761575 -23 10 C-21.68 10.33 -20.36 10.66 -19 11 C-19.33 14.3 -19.66 17.6 -20 21 C-17.94356259 17.07407404 -16.31061591 13.23429756 -15 9 C-14.34 9 -13.68 9 -13 9 C-13.33 11.31 -13.66 13.62 -14 16 C-11.22762716 14.61381358 -11.15621118 13.13057338 -10.125 10.25 C-6.16010029 0 -6.16010029 0 0 0 Z " fill="#18332C" transform="translate(359,170)"/>
<path d="M0 0 C-0.81791016 0.87398438 -0.81791016 0.87398438 -1.65234375 1.765625 C-5.91427603 6.39911035 -9.86949153 11.08548656 -13.5625 16.1875 C-22.76702094 28.67475218 -22.76702094 28.67475218 -30 30 C-30 30.66 -30 31.32 -30 32 C-20.32885532 27.06574251 -14.56948364 19.38113796 -8.36328125 10.69726562 C-5.56317314 6.85534184 -2.92798459 3.78412094 1 1 C2.33186834 10.17509298 -0.94429195 17.56404984 -6 25 C-8.79702309 27.5060576 -11.72605274 29.2009183 -15 31 C-16.35099103 32.31543863 -17.69205669 33.64175118 -19 35 C-24.23516726 36.74505575 -28.97166401 36.66668136 -34 34.5 C-34.99 34.005 -35.98 33.51 -37 33 C-36.47212891 32.30233521 -36.47212891 32.30233521 -35.93359375 31.59057617 C-33.10284061 27.83456217 -30.30851537 24.05676472 -27.5625 20.23828125 C-26.97726563 19.42939453 -26.39203125 18.62050781 -25.7890625 17.78710938 C-24.59078337 16.12966433 -23.3981134 14.46815034 -22.2109375 12.80273438 C-16.94967642 5.56560323 -10.09752605 -3.36584202 0 0 Z " fill="#E5D28A" transform="translate(239,101)"/>
<path d="M0 0 C1.13953125 -0.03738281 2.2790625 -0.07476562 3.453125 -0.11328125 C7.38220148 0.39414687 8.95742065 1.56578418 11.75 4.3125 C13.27846661 7.36943322 12.98242445 9.94234547 12.75 13.3125 C11.25 15.75 11.25 15.75 9.75 17.3125 C10.03875 17.8075 10.3275 18.3025 10.625 18.8125 C12.56276966 23.1186548 13.75 27.58503772 13.75 32.3125 C11.8125 31.9375 11.8125 31.9375 9.75 31.3125 C8.2716774 28.35585481 8.68967217 25.57020263 8.75 22.3125 C2.81 21.3225 2.81 21.3225 -3.25 20.3125 C-3.25 24.6025 -3.25 28.8925 -3.25 33.3125 C-4.57 32.9825 -5.89 32.6525 -7.25 32.3125 C-7.27465504 27.91593827 -7.29283842 23.5194128 -7.30493164 19.12280273 C-7.30997121 17.62605082 -7.31680287 16.12930384 -7.32543945 14.63256836 C-7.33752159 12.48550193 -7.34323191 10.33850038 -7.34765625 8.19140625 C-7.35289307 6.8979126 -7.35812988 5.60441895 -7.36352539 4.27172852 C-7.16289381 -0.95806814 -4.69113618 0.0999233 0 0 Z " fill="#26423F" transform="translate(204.25,276.6875)"/>
<path d="M0 0 C4.62 0 9.24 0 14 0 C14 0.66 14 1.32 14 2 C14.61875 2.2475 15.2375 2.495 15.875 2.75 C18.46561326 4.27389015 19.12444207 5.13453767 20 8 C19.66041692 11.99010113 18.61123442 15.34786864 17 19 C17.66 19.66 18.32 20.32 19 21 C19.38749213 23.32495277 19.71758117 25.6599583 20 28 C20.30903983 29.33917261 20.62942911 30.67653254 21 32 C19.68 32 18.36 32 17 32 C15.11608215 28.73454239 14.50712033 25.71888239 14 22 C10.7 21.34 7.4 20.68 4 20 C4 23.96 4 27.92 4 32 C2.02 32.495 2.02 32.495 0 33 C0 22.11 0 11.22 0 0 Z " fill="#344E4B" transform="translate(326,277)"/>
<path d="M0 0 C0.33 0.99 0.66 1.98 1 3 C1.99 3.33 2.98 3.66 4 4 C4 4.99 4 5.98 4 7 C1.23723823 6.47731534 -1.3260876 5.89130413 -4 5 C-9.01103128 4.6288125 -11.99128499 4.88211054 -16 8 C-18.80625816 10.61272312 -18.99770608 11.97968242 -19.4375 15.875 C-19.26938427 20.1659538 -17.81127294 22.72018157 -15 26 C-11.59075716 28.58632215 -8.15821411 28.22681168 -4 28 C-3.01 27.67 -2.02 27.34 -1 27 C-0.67 24.36 -0.34 21.72 0 19 C-2.97 19 -5.94 19 -9 19 C-9 17.68 -9 16.36 -9 15 C-7.02090602 14.97313447 -5.04171029 14.95366625 -3.0625 14.9375 C-1.96035156 14.92589844 -0.85820312 14.91429687 0.27734375 14.90234375 C3 15 3 15 4 16 C4.07258946 18.18639453 4.08373783 20.37500389 4.0625 22.5625 C4.05347656 23.76003906 4.04445312 24.95757812 4.03515625 26.19140625 C4.02355469 27.11824219 4.01195312 28.04507812 4 29 C-0.91516791 32.20990557 -3.95956388 33.75505451 -10 33 C-17.21491589 30.76088817 -19.9288669 27.10669964 -24 21 C-24.79746776 16.68293896 -24.80846268 12.6615302 -22.8671875 8.671875 C-16.68678962 -0.0648131 -10.15033869 -0.4434614 0 0 Z " fill="#294441" transform="translate(183,277)"/>
<path d="M0 0 C3.15497204 2.83317888 4.58235239 5.48358611 5.265625 9.66796875 C5.44333201 19.64325546 5.44333201 19.64325546 2.07421875 23.70703125 C0.390625 25.28125 0.390625 25.28125 -1.23828125 26.58203125 C-1.98078125 27.22140625 -2.72328125 27.86078125 -3.48828125 28.51953125 C-7.68385822 30.14054963 -11.79425573 29.815019 -16.23828125 29.58203125 C-16.23828125 28.92203125 -16.23828125 28.26203125 -16.23828125 27.58203125 C-16.98078125 27.39640625 -17.72328125 27.21078125 -18.48828125 27.01953125 C-22.30087745 25.02658323 -23.94798654 22.57711487 -25.23828125 18.58203125 C-25.9954616 12.86876135 -26.06524771 8.20744809 -23.42578125 3.01953125 C-22.70390625 2.21515625 -21.98203125 1.41078125 -21.23828125 0.58203125 C-20.74328125 -0.01609375 -20.24828125 -0.61421875 -19.73828125 -1.23046875 C-13.68473242 -6.02286158 -5.82292456 -3.72052989 0 0 Z M-21.23828125 6.58203125 C-22.77425579 9.65398033 -22.46478505 12.18447418 -22.23828125 15.58203125 C-20.63157492 19.67913238 -18.83875334 22.98169029 -15.23828125 25.58203125 C-10.05912527 26.25340332 -6.59129021 25.45105988 -2.23828125 22.58203125 C1.20264147 18.79701626 1.27060604 14.86642468 1.1171875 9.95703125 C0.60545398 6.5379765 -0.68172615 4.85452467 -3.23828125 2.58203125 C-10.14932108 -2.42251483 -16.21434499 1.10395386 -21.23828125 6.58203125 Z " fill="#2F4946" transform="translate(250.23828125,280.41796875)"/>
<path d="M0 0 C-0.16223111 9.96983935 -0.89145748 20.11001376 -7.7109375 27.97265625 C-10.1956372 30.18067541 -12.77147134 31.86397104 -15.625 33.5625 C-18.20214078 34.99320117 -18.20214078 34.99320117 -20.625 37.625 C-23.60197512 40.60197512 -25.27658819 40.93423529 -29.4375 41.3125 C-35.26973089 41.2797959 -40.6008365 39.01568771 -46 37 C-46 36.34 -46 35.68 -46 35 C-45.25234375 34.55527344 -44.5046875 34.11054688 -43.734375 33.65234375 C-40.8190359 31.89064598 -39.31423208 30.24864815 -37.25 27.5625 C-36.56550781 26.68078125 -35.88101563 25.7990625 -35.17578125 24.890625 C-33.68390921 22.9086047 -32.20264818 20.91856586 -30.73046875 18.921875 C-21.75504536 6.75077276 -15.96341995 -0.33257125 0 0 Z M-19.08203125 6.7109375 C-24.13276723 12.24514516 -28.36381777 18.53652225 -32.65625 24.66796875 C-35.34879697 28.51399762 -38.15930829 32.26224775 -41 36 C-34.8267823 39.08660885 -30.13220392 40.03305098 -23.25 38.3125 C-20.83338932 37.08663508 -20.83338932 37.08663508 -19.125 34.625 C-17 32 -17 32 -13.6875 30.5625 C-7.74193827 27.4095506 -5.17307013 20.02768263 -3 14 C-2.52021009 10.55579388 -2.50101089 7.43748056 -3 4 C-8.38047961 8.14745303 -11.98918033 12.57629436 -15.89453125 18.11328125 C-20.98735129 25.09583044 -26.08316786 31.29424879 -34 35 C-34 34.34 -34 33.68 -34 33 C-33.34 32.814375 -32.68 32.62875 -32 32.4375 C-24.3611605 28.77722274 -19.16017196 22.07176465 -14.25 15.375 C-13.15141877 13.90336425 -12.05246967 12.43200303 -10.953125 10.9609375 C-10.44716797 10.27870117 -9.94121094 9.59646484 -9.41992188 8.89355469 C-7.6649866 6.55323867 -5.84688053 4.26825619 -4 2 C-9.51350518 2 -14.75239742 3.15300201 -19.08203125 6.7109375 Z " fill="#485942" transform="translate(243,98)"/>
<path d="M0 0 C0.74886475 0.00523682 1.49772949 0.01047363 2.26928711 0.01586914 C3.07817383 0.0190918 3.88706055 0.02231445 4.72045898 0.02563477 C5.5705957 0.03401367 6.42073242 0.04239258 7.29663086 0.05102539 C8.15063477 0.05553711 9.00463867 0.06004883 9.88452148 0.06469727 C12.00108749 0.07652166 14.11761771 0.0944577 16.23413086 0.11352539 C16.56413086 1.43352539 16.89413086 2.75352539 17.23413086 4.11352539 C11.95413086 4.11352539 6.67413086 4.11352539 1.23413086 4.11352539 C1.23413086 7.74352539 1.23413086 11.37352539 1.23413086 15.11352539 C5.85413086 15.11352539 10.47413086 15.11352539 15.23413086 15.11352539 C15.23413086 16.10352539 15.23413086 17.09352539 15.23413086 18.11352539 C10.61413086 18.11352539 5.99413086 18.11352539 1.23413086 18.11352539 C1.23413086 21.74352539 1.23413086 25.37352539 1.23413086 29.11352539 C6.18413086 29.11352539 11.13413086 29.11352539 16.23413086 29.11352539 C16.23413086 30.43352539 16.23413086 31.75352539 16.23413086 33.11352539 C13.25490492 33.14036526 10.27591791 33.16028576 7.29663086 33.17602539 C6.44649414 33.1844043 5.59635742 33.1927832 4.72045898 33.20141602 C3.91157227 33.20463867 3.10268555 33.20786133 2.26928711 33.21118164 C1.52042236 33.21641846 0.77155762 33.22165527 0 33.22705078 C-1.76586914 33.11352539 -1.76586914 33.11352539 -2.76586914 32.11352539 C-2.86607844 29.83404748 -2.89668217 27.55145404 -2.89868164 25.26977539 C-2.89963837 24.58548462 -2.90059509 23.90119385 -2.90158081 23.19616699 C-2.90226244 21.74690662 -2.90040937 20.29764321 -2.89624023 18.84838867 C-2.89089166 16.62289611 -2.89618574 14.39760538 -2.90258789 12.17211914 C-2.90192711 10.76717078 -2.90064594 9.36222254 -2.89868164 7.95727539 C-2.89755371 6.67014648 -2.89642578 5.38301758 -2.89526367 4.05688477 C-2.72461727 0.17516204 -2.72461727 0.17516204 0 0 Z " fill="#2B4643" transform="translate(300.765869140625,276.886474609375)"/>
<path d="M0 0 C0.99 0 1.98 0 3 0 C3 2.97 3 5.94 3 9 C3.66 9 4.32 9 5 9 C5.33 8.01 5.66 7.02 6 6 C7.125 9.75 7.125 9.75 6 12 C6.78375 11.67 7.5675 11.34 8.375 11 C12.99361869 9.72589829 17.24249356 9.83076064 22 10 C22.66 11.32 23.32 12.64 24 14 C18.76645008 18.08602975 13.26548066 17.33454404 6.94921875 17.08789062 C4.4091622 17.10589103 2.41371715 17.19412632 0 18 C-2.25008527 20.41806932 -3.67143932 22.98981962 -5 26 C-6 23 -6 23 -6.375 20.1875 C-6.85839849 16.92692718 -6.85839849 16.92692718 -8.5625 14 C-10.15517651 10.67615337 -10.4135212 8.63898658 -10 5 C-9.34 4.34 -8.68 3.68 -8 3 C-6 3.125 -6 3.125 -4 4 C-1.85150175 7.0531291 -1.49698389 10.35545149 -1 14 C-0.83081732 12.41693353 -0.66476064 10.83353281 -0.5 9.25 C-0.4071875 8.36828125 -0.314375 7.4865625 -0.21875 6.578125 C0.05636313 3.76695165 0.05636313 3.76695165 0 0 Z " fill="#455641" transform="translate(326,191)"/>
<path d="M0 0 C3.295146 0.24408489 4.19946798 1.20433305 6.5625 3.625 C10.37114227 8.563423 11.95761161 13.64047123 13.375 19.625 C15.88916204 30.00397662 19.91081067 39.40243427 25.2331543 48.62426758 C30.94238925 58.75833432 31.97745457 71.70973642 29.56494141 83.04394531 C27.77839271 89.16971211 24.98501011 95.01873736 21 100 C20.40832031 100.76828125 19.81664062 101.5365625 19.20703125 102.328125 C13.59949282 109.1511408 7.30397105 113.85345137 -1 117 C-4.39453125 117.1796875 -4.39453125 117.1796875 -7 117 C-4.67016291 115.04293685 -2.64740308 113.85481303 0.1875 112.6875 C12.30431964 107.65396036 19.99366603 98.96270064 25 87 C27.06928369 81.92412642 27.30403247 77.51924151 27.25 72.125 C27.25773437 71.36058594 27.26546875 70.59617187 27.2734375 69.80859375 C27.24591954 61.70455498 25.46523641 55.38278953 21.6875 48.1875 C21.0575053 46.95758818 20.4286079 45.7271137 19.80078125 44.49609375 C19.20652344 43.34238281 18.61226563 42.18867188 18 41 C14.61771527 34.41544009 12.36309029 27.95097093 10.5 20.8125 C8.82494389 14.39803592 7.06510736 9.34882547 3 4 C2.401875 3.175 1.80375 2.35 1.1875 1.5 C0.5996875 0.7575 0.5996875 0.7575 0 0 Z " fill="#2D4336" transform="translate(280,109)"/>
<path d="M0 0 C0 4.95 0 9.9 0 15 C-1.546875 15.2475 -3.09375 15.495 -4.6875 15.75 C-9.12622572 16.66403943 -11.89631765 17.53117855 -15 21 C-17.68680154 25.41201094 -19.51659169 30.05530565 -21 35 C-22.14453125 33.34375 -22.14453125 33.34375 -23 31 C-22.13671875 28.40625 -22.13671875 28.40625 -20.6875 25.5 C-18.62546701 20.99550547 -17.6970954 17.51193985 -17.5625 12.5625 C-17.25873872 6.4473059 -17.25873872 6.4473059 -14.4375 3.875 C-9.70869763 1.29565325 -5.45557784 0 0 0 Z " fill="#EBD68C" transform="translate(259,93)"/>
<path d="M0 0 C3.875 0.875 3.875 0.875 5 2 C5.48916597 6.01116099 4.90415991 8.47906116 3 11.9375 C0.84164825 15.88181183 0.6293489 18.55218677 1 23 C-1.02331454 21.16938208 -1.98577623 20.03867454 -2.9453125 17.4296875 C-4.72113213 14.82780507 -4.72113213 14.82780507 -7.17749023 14.53295898 C-9.98064998 14.35272066 -12.75357345 14.30314315 -15.5625 14.3125 C-17.48055693 14.29595405 -19.39856736 14.2716002 -21.31640625 14.23828125 C-22.59173218 14.2388855 -22.59173218 14.2388855 -23.89282227 14.23950195 C-26 14 -26 14 -28 12 C-27.625 9.375 -27.625 9.375 -27 7 C-20.90218999 6.77915376 -15.78357065 6.98832325 -10 9 C-10.99 8.01 -11.98 7.02 -13 6 C-12.34 6 -11.68 6 -11 6 C-10.67 5.01 -10.34 4.02 -10 3 C-9.34 4.32 -8.68 5.64 -8 7 C-7.34 5.68 -6.68 4.36 -6 3 C-5.34 5.64 -4.68 8.28 -4 11 C-3.566875 9.1128125 -3.566875 9.1128125 -3.125 7.1875 C-2.42696461 4.1460601 -1.79553415 2.69330122 0 0 Z " fill="#495943" transform="translate(202,194)"/>
<path d="M0 0 C1.69867523 0.9751016 3.34835906 2.03449916 4.98828125 3.10546875 C4.98828125 3.76546875 4.98828125 4.42546875 4.98828125 5.10546875 C4.34890625 4.94046875 3.70953125 4.77546875 3.05078125 4.60546875 C-2.38176172 3.71852296 -7.32421238 2.9804645 -12.01171875 6.10546875 C-11.68171875 7.75546875 -11.35171875 9.40546875 -11.01171875 11.10546875 C-10.13128906 11.3478125 -9.25085938 11.59015625 -8.34375 11.83984375 C-7.18230469 12.175 -6.02085937 12.51015625 -4.82421875 12.85546875 C-3.67566406 13.1803125 -2.52710938 13.50515625 -1.34375 13.83984375 C2.11721014 15.15444057 4.33673039 16.53739264 6.98828125 19.10546875 C7.71971608 22.92518395 7.33551544 24.53960563 5.30078125 27.85546875 C2.26334486 30.81081227 0.19083418 32.10954755 -4.12109375 32.1015625 C-9.01507352 31.71562785 -12.72713875 30.63227234 -17.01171875 28.10546875 C-17.01171875 26.78546875 -17.01171875 25.46546875 -17.01171875 24.10546875 C-14.04996752 24.71824487 -12.63113092 25.35919397 -10.01171875 27.10546875 C-7.82984928 27.42126815 -7.82984928 27.42126815 -5.51171875 27.35546875 C-4.3515625 27.36320312 -4.3515625 27.36320312 -3.16796875 27.37109375 C-0.71658031 27.23284937 -0.71658031 27.23284937 1.98828125 25.10546875 C2.23859102 22.52166698 2.23859102 22.52166698 1.98828125 20.10546875 C0.94027344 19.7909375 -0.10773438 19.47640625 -1.1875 19.15234375 C-2.56663365 18.72077812 -3.94552766 18.28844612 -5.32421875 17.85546875 C-6.01451172 17.65050781 -6.70480469 17.44554687 -7.41601562 17.234375 C-10.45462931 16.26554165 -12.68982786 15.42735964 -14.96484375 13.15234375 C-16.58406899 9.98639589 -16.44776345 7.59382634 -16.01171875 4.10546875 C-12.10228835 -1.01723315 -6.06293037 -2.69594379 0 0 Z " fill="#2F4A46" transform="translate(371.01171875,277.89453125)"/>
<path d="M0 0 C0.804375 0.721875 1.60875 1.44375 2.4375 2.1875 C2.4375 3.1775 2.4375 4.1675 2.4375 5.1875 C-2.4375 4.3125 -2.4375 4.3125 -3.5625 3.1875 C-7.78665984 2.73366465 -11.49056104 2.7447426 -15.4375 4.375 C-18.79807391 7.24137187 -20.33232231 9.67490377 -21 14.0625 C-20.39611824 18.37594116 -19.10199866 20.61847486 -16.5625 24.1875 C-11.50780419 27.65357713 -5.15551589 25.66376822 0.5 24.625 C1.4590625 24.4084375 1.4590625 24.4084375 2.4375 24.1875 C2.14238433 27.04028483 1.62517059 28.02328823 -0.5625 29.9375 C-5.77786001 32.11056667 -10.50953771 31.89814079 -15.8125 30.0625 C-19.9921989 27.2127053 -22.93114324 24.08157029 -24.5625 19.1875 C-25.24098764 14.41495628 -25.62324402 10.04604304 -23.17578125 5.7578125 C-16.93349209 -1.63544104 -8.99895327 -4.57841482 0 0 Z " fill="#24403D" transform="translate(286.5625,278.8125)"/>
<path d="M0 0 C1.32 0 2.64 0 4 0 C3.83701416 1.01457275 3.67402832 2.02914551 3.50610352 3.07446289 C3.03690259 6.71376909 2.88545514 10.14376511 2.90234375 13.80859375 C2.90717773 15.66967773 2.90717773 15.66967773 2.91210938 17.56835938 C2.92048828 18.84517578 2.92886719 20.12199219 2.9375 21.4375 C2.94201172 22.74138672 2.94652344 24.04527344 2.95117188 25.38867188 C2.96290749 28.59249552 2.97932637 31.79622363 3 35 C1.02 35 -0.96 35 -3 35 C-3.28875 35.5775 -3.5775 36.155 -3.875 36.75 C-4.91666667 38.83333333 -5.95833333 40.91666667 -7 43 C-7.66 43 -8.32 43 -9 43 C-8.34 41.02 -7.68 39.04 -7 37 C-14.72353482 41.29085268 -17.08518288 45.8757225 -20 54 C-21.52079821 50.109369 -20.41729284 47.79446692 -18.8125 44.0625 C-18.38582031 43.04285156 -17.95914063 42.02320313 -17.51953125 40.97265625 C-15.97546375 37.95199978 -14.17564944 35.59005885 -12 33 C-11.67 32.34 -11.34 31.68 -11 31 C-8.03 31 -5.06 31 -2 31 C-2.01571045 30.22285645 -2.0314209 29.44571289 -2.04760742 28.64501953 C-2.10980351 25.1384198 -2.14894207 21.63193587 -2.1875 18.125 C-2.21263672 16.90167969 -2.23777344 15.67835937 -2.26367188 14.41796875 C-2.27333984 13.25136719 -2.28300781 12.08476563 -2.29296875 10.8828125 C-2.3086792 9.80402832 -2.32438965 8.72524414 -2.34057617 7.61376953 C-2.22818604 6.75122559 -2.1157959 5.88868164 -2 5 C-1.01 4.34 -0.02 3.68 1 3 C0.34 3 -0.32 3 -1 3 C-0.67 2.01 -0.34 1.02 0 0 Z " fill="#A8A36E" transform="translate(262,79)"/>
<path d="M0 0 C2.0625 0.4375 2.0625 0.4375 4 1 C2.68 1.33 1.36 1.66 0 2 C1.87702327 6.89562693 1.87702327 6.89562693 5 11 C5.125 13.625 5.125 13.625 5 16 C5.969375 16.12375 6.93875 16.2475 7.9375 16.375 C9.4534375 16.684375 9.4534375 16.684375 11 17 C11.495 17.99 11.495 17.99 12 19 C8.37 18.67 4.74 18.34 1 18 C1 17.34 1 16.68 1 16 C-1.31 16 -3.62 16 -6 16 C-6 15.34 -6 14.68 -6 14 C-4.02 14 -2.04 14 0 14 C0 13.34 0 12.68 0 12 C-1.09699219 12.03480469 -2.19398438 12.06960937 -3.32421875 12.10546875 C-4.77863045 12.13361865 -6.2330588 12.16091752 -7.6875 12.1875 C-8.7693457 12.22520508 -8.7693457 12.22520508 -9.87304688 12.26367188 C-14.47589338 12.32672457 -17.30307233 11.77816458 -21 9 C-20.67 7.35 -20.34 5.7 -20 4 C-11.76434583 3.52486611 -11.76434583 3.52486611 -8.6875 5.4375 C-7.8521875 6.2109375 -7.8521875 6.2109375 -7 7 C-4.85266073 7.70514846 -4.85266073 7.70514846 -3 8 C-3 7.34 -3 6.68 -3 6 C-2.34 6 -1.68 6 -1 6 C-1.020625 5.195625 -1.04125 4.39125 -1.0625 3.5625 C-1 1 -1 1 0 0 Z " fill="#64746A" transform="translate(165,170)"/>
<path d="M0 0 C2 1 2 1 3.125 4.25 C6.24585592 18.02139598 3.21707325 30.17729448 -4 42 C-10.54284002 50.09047334 -10.54284002 50.09047334 -16 51 C-16 51.66 -16 52.32 -16 53 C-26.57777702 58.23282256 -35.4292201 58.58438282 -47 58 C-47 57.34 -47 56.68 -47 56 C-46.07960937 55.98582031 -45.15921875 55.97164062 -44.2109375 55.95703125 C-31.58517793 55.48131526 -19.48040081 52.97094002 -10 44 C-9.44828125 43.48824219 -8.8965625 42.97648437 -8.328125 42.44921875 C-0.44658928 34.27505175 1.18243602 22.98471708 1.1015625 12.09375 C0.9676529 8.01465766 0.53925675 4.04442561 0 0 Z " fill="#41533F" transform="translate(300,163)"/>
<path d="M0 0 C3.28175318 2.52968474 4.69243777 4.07731331 6 8 C7.29355827 9.37195574 8.62298702 10.71182656 10 12 C7.23723823 11.47731534 4.6739124 10.89130413 2 10 C0.27204648 9.93197033 -1.45835365 9.91504355 -3.1875 9.9375 C-4.08855469 9.94652344 -4.98960937 9.95554688 -5.91796875 9.96484375 C-6.94857422 9.98224609 -6.94857422 9.98224609 -8 10 C-8.33 11.32 -8.66 12.64 -9 14 C-9.99 13.67 -10.98 13.34 -12 13 C-12.94921875 10.71484375 -12.94921875 10.71484375 -13.6875 7.9375 C-14.06455078 6.55884766 -14.06455078 6.55884766 -14.44921875 5.15234375 C-14.63097656 4.44207031 -14.81273437 3.73179687 -15 3 C-17.31 3 -19.62 3 -22 3 C-22 2.67 -22 2.34 -22 2 C-21.22914063 1.93941406 -20.45828125 1.87882813 -19.6640625 1.81640625 C-18.15972656 1.69072266 -18.15972656 1.69072266 -16.625 1.5625 C-15.62726563 1.48128906 -14.62953125 1.40007812 -13.6015625 1.31640625 C-1.2118041 -0.19045626 -1.2118041 -0.19045626 0 0 Z " fill="#E0CF8C" transform="translate(183,192)"/>
<path d="M0 0 C2.29109597 -0.08075665 4.58299267 -0.13907731 6.875 -0.1875 C8.78925781 -0.23970703 8.78925781 -0.23970703 10.7421875 -0.29296875 C11.81726563 -0.19628906 12.89234375 -0.09960938 14 0 C16.47342266 3.71013399 16.38503486 5.61060262 16 10 C14.5 12.4375 14.5 12.4375 13 14 C13.28875 14.495 13.5775 14.99 13.875 15.5 C15.81276966 19.8061548 17 24.27253772 17 29 C15.0625 28.625 15.0625 28.625 13 28 C11.5216774 25.04335481 11.93967217 22.25770263 12 19 C6.06 18.01 6.06 18.01 0 17 C0 15.68 0 14.36 0 13 C0.62648437 12.95101563 1.25296875 12.90203125 1.8984375 12.8515625 C2.71570313 12.77679688 3.53296875 12.70203125 4.375 12.625 C5.18710938 12.55539062 5.99921875 12.48578125 6.8359375 12.4140625 C9.20334191 12.17107412 9.20334191 12.17107412 11 10 C11.41666667 7 11.41666667 7 11 4 C8.09907498 2.06604999 7.10325263 1.69868059 3.8125 1.375 C1.9253125 1.189375 1.9253125 1.189375 0 1 C0 0.67 0 0.34 0 0 Z " fill="#213D3A" transform="translate(201,280)"/>
<path d="M0 0 C2.27027611 1.91016334 3.57335319 3.68539019 4.69921875 6.4296875 C4.69921875 7.7496875 4.69921875 9.0696875 4.69921875 10.4296875 C4.03921875 10.4296875 3.37921875 10.4296875 2.69921875 10.4296875 C2.36921875 13.3996875 2.03921875 16.3696875 1.69921875 19.4296875 C1.03921875 19.4296875 0.37921875 19.4296875 -0.30078125 19.4296875 C-0.24277344 18.62144531 -0.18476563 17.81320312 -0.125 16.98046875 C0.31722825 10.1487017 0.31722825 10.1487017 -2.67578125 4.2421875 C-6.83880827 1.36771646 -9.18795292 1.00361847 -14.30078125 1.4296875 C-16.3302966 2.71764916 -18.33579803 4.0452675 -20.30078125 5.4296875 C-21.29078125 5.0996875 -22.28078125 4.7696875 -23.30078125 4.4296875 C-21.74684583 0.96321619 -20.25226822 -1.77526225 -16.61328125 -3.2578125 C-9.73480434 -4.18733641 -5.74621945 -3.99638838 0 0 Z " fill="#2E4946" transform="translate(250.30078125,280.5703125)"/>
<path d="M0 0 C8.36923077 -0.36923077 8.36923077 -0.36923077 11.5625 1.5 C12.036875 1.995 12.51125 2.49 13 3 C12.6875 6.375 12.6875 6.375 12 10 C7.7975546 12.80163026 4.99895065 12.14489712 0 12 C0 8.04 0 4.08 0 0 Z " fill="#DCDFD8" transform="translate(329,281)"/>
<path d="M0 0 C2 2 2 2 2 6 C-0.94381488 7.67128932 -3.17383394 8.27731759 -6.546875 8.4140625 C-7.39121094 8.45273438 -8.23554688 8.49140625 -9.10546875 8.53125 C-9.97816406 8.5621875 -10.85085938 8.593125 -11.75 8.625 C-12.63816406 8.66367188 -13.52632813 8.70234375 -14.44140625 8.7421875 C-16.6273998 8.83620873 -18.81339062 8.92186143 -21 9 C-21 9.66 -21 10.32 -21 11 C-19.68 11.33 -18.36 11.66 -17 12 C-19.31 12 -21.62 12 -24 12 C-22.52459016 6.3442623 -22.52459016 6.3442623 -20 4.6875 C-19.34 4.460625 -18.68 4.23375 -18 4 C-17.34 3.67 -16.68 3.34 -16 3 C-15.67 3.66 -15.34 4.32 -15 5 C-14.33613281 4.6390625 -13.67226563 4.278125 -12.98828125 3.90625 C-11.66376953 3.21015625 -11.66376953 3.21015625 -10.3125 2.5 C-9.44238281 2.0359375 -8.57226562 1.571875 -7.67578125 1.09375 C-4.83994572 -0.06542365 -3.02865535 -0.37148754 0 0 Z " fill="#1C3937" transform="translate(377,173)"/>
<path d="M0 0 C0.33 0.99 0.66 1.98 1 3 C1.99 3.33 2.98 3.66 4 4 C4 4.99 4 5.98 4 7 C1.23723823 6.47731534 -1.3260876 5.89130413 -4 5 C-9.04377944 4.62638671 -11.94057793 4.92800492 -16 8 C-17.36984198 9.29579647 -18.7151049 10.61992749 -20 12 C-20 11.34 -20 10.68 -20 10 C-20.66 10 -21.32 10 -22 10 C-22.33 13.63 -22.66 17.26 -23 21 C-23.33 21 -23.66 21 -24 21 C-24.61291801 15.46103721 -24.70624538 11.22103846 -21.375 6.5625 C-15.15427385 -0.56541538 -8.98045795 -0.3923501 0 0 Z " fill="#445C57" transform="translate(183,277)"/>
<path d="M0 0 C7.2 -0.36 7.2 -0.36 10.5 1.125 C12 3 12 3 12.4375 6 C11.95220083 9.32776576 11.61982205 10.03513346 9 12 C6.73828125 12.29296875 6.73828125 12.29296875 4.3125 12.1875 C2.889375 12.125625 1.46625 12.06375 0 12 C0 8.04 0 4.08 0 0 Z " fill="#E6E7E0" transform="translate(201,281)"/>
<path d="M0 0 C1.69867523 0.9751016 3.34835906 2.03449916 4.98828125 3.10546875 C4.98828125 3.76546875 4.98828125 4.42546875 4.98828125 5.10546875 C4.34890625 4.94046875 3.70953125 4.77546875 3.05078125 4.60546875 C-2.38176172 3.71852296 -7.32421238 2.9804645 -12.01171875 6.10546875 C-11.68171875 7.75546875 -11.35171875 9.40546875 -11.01171875 11.10546875 C-8.37171875 11.76546875 -5.73171875 12.42546875 -3.01171875 13.10546875 C-3.01171875 13.76546875 -3.01171875 14.42546875 -3.01171875 15.10546875 C-2.35171875 15.43546875 -1.69171875 15.76546875 -1.01171875 16.10546875 C-9.89397274 16.40656211 -9.89397274 16.40656211 -14.01171875 14.10546875 C-16.49210782 10.38488515 -16.47509078 8.50750304 -16.01171875 4.10546875 C-12.10228835 -1.01723315 -6.06293037 -2.69594379 0 0 Z " fill="#223F3C" transform="translate(371.01171875,277.89453125)"/>
<path d="M0 0 C0.33 0 0.66 0 1 0 C1.33 3.96 1.66 7.92 2 12 C2.99 11.67 3.98 11.34 5 11 C5.391875 11.78375 5.78375 12.5675 6.1875 13.375 C8.36072218 16.52242523 9.28133825 17.19159527 13 18 C17.72752761 17.83668541 22.39033665 17.04089173 27 16 C26.70488433 18.85278483 26.18767059 19.83578823 24 21.75 C18.78463999 23.92306667 14.05296229 23.71064079 8.75 21.875 C4.5703011 19.0252053 1.63135676 15.89407029 0 11 C-0.0685495 9.10529184 -0.08480372 7.2083166 -0.0625 5.3125 C-0.05347656 4.31863281 -0.04445313 3.32476562 -0.03515625 2.30078125 C-0.02355469 1.54152344 -0.01195312 0.78226562 0 0 Z " fill="#36504C" transform="translate(262,287)"/>
<path d="M0 0 C0.33 0 0.66 0 1 0 C2.87443356 11.3393951 0.72766045 19.21033274 -4.75 29.1875 C-5.4925 30.115625 -6.235 31.04375 -7 32 C-7.59167969 32.76828125 -8.18335938 33.5365625 -8.79296875 34.328125 C-14.40050718 41.1511408 -20.69602895 45.85345137 -29 49 C-32.39453125 49.1796875 -32.39453125 49.1796875 -35 49 C-32.67016291 47.04293685 -30.64740308 45.85481303 -27.8125 44.6875 C-15.69568036 39.65396036 -8.00633397 30.96270064 -3 19 C-1.33787278 14.64652798 -0.65951772 10.7721228 -0.375 6.125 C-0.30023438 4.97257813 -0.22546875 3.82015625 -0.1484375 2.6328125 C-0.09945312 1.76398438 -0.05046875 0.89515625 0 0 Z " fill="#384C3B" transform="translate(308,177)"/>
<path d="M0 0 C3.96 0 7.92 0 12 0 C12 0.33 12 0.66 12 1 C9.03 1 6.06 1 3 1 C3 5.62 3 10.24 3 15 C5.64 15 8.28 15 11 15 C11 15.66 11 16.32 11 17 C8.36 17 5.72 17 3 17 C3 21.62 3 26.24 3 31 C2.01 31 1.02 31 0 31 C0 20.77 0 10.54 0 0 Z " fill="#0D2C2A" transform="translate(326,279)"/>
<path d="M0 0 C3.875 0.875 3.875 0.875 5 2 C5.48916597 6.01116099 4.90415991 8.47906116 3 11.9375 C0.84164825 15.88181183 0.6293489 18.55218677 1 23 C-2.14259906 20.42878258 -3.1257681 17.93404354 -4 14 C-4.00948742 8.62063292 -3.27116554 4.40896225 0 0 Z " fill="#13302A" transform="translate(202,194)"/>
<path d="M0 0 C2 0.125 2 0.125 4 1 C6.26500046 4.38549539 6.29861482 7.43393972 6.3125 11.4375 C6.33763672 13.10619141 6.33763672 13.10619141 6.36328125 14.80859375 C5.96756708 18.28492148 5.00367286 20.17159635 3 23 C2 20 2 20 1.625 17.1875 C1.14160151 13.92692718 1.14160151 13.92692718 -0.5625 11 C-2.15517651 7.67615337 -2.4135212 5.63898658 -2 2 C-1.34 1.34 -0.68 0.68 0 0 Z " fill="#14302A" transform="translate(318,194)"/>
<path d="M0 0 C0.845625 0.144375 1.69125 0.28875 2.5625 0.4375 C2.5625 0.7675 2.5625 1.0975 2.5625 1.4375 C-2.56333611 1.54001672 -7.38747778 1.47340199 -12.4375 0.4375 C-12.4375 1.4275 -12.4375 2.4175 -12.4375 3.4375 C-13.7575 3.4375 -15.0775 3.4375 -16.4375 3.4375 C-16.4375 4.4275 -16.4375 5.4175 -16.4375 6.4375 C-15.1175 6.7675 -13.7975 7.0975 -12.4375 7.4375 C-17.7587615 8.52068169 -23.07236869 9.590374 -28.4375 10.4375 C-27.0625 8.4375 -27.0625 8.4375 -25.4375 6.4375 C-24.7775 6.4375 -24.1175 6.4375 -23.4375 6.4375 C-23.355 5.86 -23.2725 5.2825 -23.1875 4.6875 C-19.80021499 -5.47435503 -8.08494637 -1.32299122 0 0 Z " fill="#BAB076" transform="translate(358.4375,193.5625)"/>
<path d="M0 0 C1.02820502 3.08461506 1.04582849 4.89685239 0.87890625 8.10546875 C0.83056641 9.08837891 0.78222656 10.07128906 0.73242188 11.08398438 C0.67634766 12.10814453 0.62027344 13.13230469 0.5625 14.1875 C0.51029297 15.22326172 0.45808594 16.25902344 0.40429688 17.32617188 C0.27461607 19.88442049 0.13965022 22.44227938 0 25 C1.89179203 25.6814823 1.89179203 25.6814823 4 26 C4.66 25.34 5.32 24.68 6 24 C9.50337981 23.61919785 11.36278626 23.59754922 14.375 25.5 C14.91125 25.995 15.4475 26.49 16 27 C12.51558574 28.16147142 9.65866885 28 6 28 C4.66457061 28.32483418 3.33038449 28.6550855 2 29 C1.34 28.67 0.68 28.34 0 28 C0 28.99 0 29.98 0 31 C-0.66 31 -1.32 31 -2 31 C-2.05804281 26.58338849 -2.09361104 22.16687504 -2.125 17.75 C-2.14175781 16.49574219 -2.15851563 15.24148437 -2.17578125 13.94921875 C-2.18222656 12.74394531 -2.18867188 11.53867188 -2.1953125 10.296875 C-2.20578613 9.18666992 -2.21625977 8.07646484 -2.22705078 6.93261719 C-2.00468334 4.06049058 -1.49281575 2.42776265 0 0 Z " fill="#394D3B" transform="translate(266,82)"/>
<path d="M0 0 C0.99 0 1.98 0 3 0 C6.69681629 6.91143916 7.15071834 12.31336469 7 20 C6.01 20 5.02 20 4 20 C2.02551654 16.30857441 0.59219119 13.14533834 0 9 C-0.103125 8.32195312 -0.20625 7.64390625 -0.3125 6.9453125 C-0.59364829 4.97024576 -0.80149237 2.98507625 -1 1 C-0.67 0.67 -0.34 0.34 0 0 Z " fill="#1B362E" transform="translate(184,180)"/>
<path d="M0 0 C0.95261719 0.42152344 1.90523437 0.84304687 2.88671875 1.27734375 C4.1535326 1.83098832 5.42046605 2.38435931 6.6875 2.9375 C7.31333984 3.21529297 7.93917969 3.49308594 8.58398438 3.77929688 C13.80474755 6.04800548 18.42064682 7.07327931 24.08203125 7.31640625 C25.01337891 7.35830078 25.94472656 7.40019531 26.90429688 7.44335938 C27.86400391 7.48267578 28.82371094 7.52199219 29.8125 7.5625 C30.79154297 7.60568359 31.77058594 7.64886719 32.77929688 7.69335938 C35.18607027 7.7990226 37.59293983 7.90112327 40 8 C37.11207701 10.88792299 34.75073157 10.29114828 30.79882812 10.32226562 C29.85458984 10.31904297 28.91035156 10.31582031 27.9375 10.3125 C27.02033203 10.32861328 26.10316406 10.34472656 25.15820312 10.36132812 C16.88724568 10.36718989 10.08536405 8.5104519 2.9375 4.3125 C2.18339844 3.87550781 1.42929688 3.43851563 0.65234375 2.98828125 C0.10707031 2.66214844 -0.43820313 2.33601562 -1 2 C-0.67 1.34 -0.34 0.68 0 0 Z " fill="#556248" transform="translate(232,218)"/>
<path d="M0 0 C0.33 0.99 0.66 1.98 1 3 C0.67 3.66 0.34 4.32 0 5 C-0.54762915 12.11917897 1.59491165 16.54608109 6 22 C5.67 22.66 5.34 23.32 5 24 C1.38710732 23.09677683 0.05038194 22.06263701 -2.3125 19.125 C-4.93829078 14.11693936 -4.50888428 8.4976187 -4 3 C-3 1 -3 1 0 0 Z " fill="#223F3C" transform="translate(229,284)"/>
<path d="M0 0 C-1 1 -1 1 -3.72265625 1.09765625 C-5.37587891 1.08025391 -5.37587891 1.08025391 -7.0625 1.0625 C-8.16722656 1.05347656 -9.27195312 1.04445312 -10.41015625 1.03515625 C-11.26480469 1.02355469 -12.11945313 1.01195312 -13 1 C-13 2.65 -13 4.3 -13 6 C-13.66 6 -14.32 6 -15 6 C-14.67 7.98 -14.34 9.96 -14 12 C-14.36738281 11.35546875 -14.73476563 10.7109375 -15.11328125 10.046875 C-17.69642918 7.24445365 -19.44262411 7.41106993 -23.1875 7.25 C-24.27417969 7.19328125 -25.36085938 7.1365625 -26.48046875 7.078125 C-27.31191406 7.05234375 -28.14335937 7.0265625 -29 7 C-28.67 6.34 -28.34 5.68 -28 5 C-25.6859378 4.26924352 -23.35171131 3.59861742 -21 3 C-21 2.34 -21 1.68 -21 1 C-17.72913838 -0.63543081 -14.10046656 -0.42398873 -10.5 -0.625 C-9.32244141 -0.70234375 -9.32244141 -0.70234375 -8.12109375 -0.78125 C-2.24757584 -1.12378792 -2.24757584 -1.12378792 0 0 Z " fill="#B4B497" transform="translate(377,181)"/>
<path d="M0 0 C6.34027681 -0.6604455 10.24850119 0.16566746 15.56640625 3.7109375 C16.03949219 4.13632813 16.51257813 4.56171875 17 5 C17 5.66 17 6.32 17 7 C10.59646678 7.2361959 5.15370839 6.823321 -1 5 C-0.67 3.35 -0.34 1.7 0 0 Z " fill="#193635" transform="translate(145,174)"/>
<path d="M0 0 C0.66 0.66 1.32 1.32 2 2 C1.48050781 2.30292969 0.96101563 2.60585937 0.42578125 2.91796875 C-3.97086281 5.55920594 -7.40560609 8.30290912 -11 12 C-19.25065738 14.75021913 -26.18406804 11.91794793 -34 9 C-34 8.34 -34 7.68 -34 7 C-31.7272325 5.50475822 -29.4320057 4.21600285 -27 3 C-27.33 4.32 -27.66 5.64 -28 7 C-22.04055673 10.57566596 -17.89231962 10.33846258 -11.125 9.75 C-8.86046092 9.22739701 -8.86046092 9.22739701 -8.125 7.25 C-6.37518419 3.75036838 -3.21802205 2.09945824 0 0 Z " fill="#666F50" transform="translate(231,126)"/>
<path d="M0 0 C1.32 0 2.64 0 4 0 C3.67 2.31 3.34 4.62 3 7 C2.34 7 1.68 7 1 7 C1 15.25 1 23.5 1 32 C0.34 32 -0.32 32 -1 32 C-1.25395244 27.5427121 -1.47397061 23.08439279 -1.6875 18.625 C-1.76033203 17.35398437 -1.83316406 16.08296875 -1.90820312 14.7734375 C-1.96298828 13.56171875 -2.01777344 12.35 -2.07421875 11.1015625 C-2.13182373 9.98088379 -2.18942871 8.86020508 -2.2487793 7.70556641 C-2.16668213 6.81272949 -2.08458496 5.91989258 -2 5 C-1.01 4.34 -0.02 3.68 1 3 C0.34 3 -0.32 3 -1 3 C-0.67 2.01 -0.34 1.02 0 0 Z " fill="#EED98E" transform="translate(262,79)"/>
<path d="M0 0 C0.66 0.33 1.32 0.66 2 1 C1 4 1 4 -1.30859375 5.38671875 C-11.05018122 9.43659219 -19.5886364 9.52582644 -30 9 C-30 8.34 -30 7.68 -30 7 C-28.61941406 6.97873047 -28.61941406 6.97873047 -27.2109375 6.95703125 C-12.6167699 6.42297699 -12.6167699 6.42297699 0 0 Z " fill="#505F46" transform="translate(283,212)"/>
<path d="M0 0 C-0.51727108 5.30202857 -2.25925713 8.54629283 -5 13 C-5.33 13.66 -5.66 14.32 -6 15 C-7.32 15 -8.64 15 -10 15 C-9.70131699 9.3250228 -8.72988185 5.88639454 -5.44921875 1.25 C-4 0 -4 0 0 0 Z " fill="#0F2D28" transform="translate(359,170)"/>
<path d="M0 0 C0.33 0 0.66 0 1 0 C1.02578125 0.66644531 1.0515625 1.33289063 1.078125 2.01953125 C1.70515275 12.20873211 4.20403179 20.55480023 10.828125 28.44140625 C12 30 12 30 12 32 C6.19821707 29.60660791 3.55515821 24.26641037 0.94921875 18.79296875 C-1.2637687 12.97207759 -1.57398362 7.18136205 -1 1 C-0.67 0.67 -0.34 0.34 0 0 Z " fill="#3C4F3C" transform="translate(222,177)"/>
<path d="M0 0 C1.65 0 3.3 0 5 0 C5.84324672 1.578076 6.67423918 3.1627042 7.5 4.75 C8.19609375 6.07257813 8.19609375 6.07257813 8.90625 7.421875 C10 10 10 10 10 14 C8.35 14 6.7 14 5 14 C4.731875 13.0925 4.46375 12.185 4.1875 11.25 C3.19729814 8.03932599 3.19729814 8.03932599 1.375 5.875 C0 4 0 4 0 0 Z " fill="#16322C" transform="translate(165,172)"/>
<path d="M0 0 C6.06417949 -0.3235827 10.7506727 -0.49955154 16 3 C16.33 3.66 16.66 4.32 17 5 C11.06 5 5.12 5 -1 5 C-0.67 3.35 -0.34 1.7 0 0 Z " fill="#19342D" transform="translate(175,201)"/>
<path d="M0 0 C0.89203125 0.01804688 1.7840625 0.03609375 2.703125 0.0546875 C3.71632813 0.08949219 3.71632813 0.08949219 4.75 0.125 C5.41 1.445 6.07 2.765 6.75 4.125 C2.23184719 5.00777755 -2.02512694 5.23089503 -6.625 5.1875 C-8.49285156 5.17396484 -8.49285156 5.17396484 -10.3984375 5.16015625 C-11.80996094 5.14275391 -11.80996094 5.14275391 -13.25 5.125 C-8.76834674 1.60370101 -5.78876607 -0.15233595 0 0 Z " fill="#14312B" transform="translate(343.25,200.875)"/>
<path d="M0 0 C1.07765625 0.00902344 2.1553125 0.01804688 3.265625 0.02734375 C4.08546875 0.03894531 4.9053125 0.05054688 5.75 0.0625 C6.08 1.7125 6.41 3.3625 6.75 5.0625 C0.7481863 5.28074777 -4.44233704 4.5681904 -10.25 3.0625 C-10.25 2.4025 -10.25 1.7425 -10.25 1.0625 C-6.78777385 -0.00473961 -3.60960734 -0.03923486 0 0 Z " fill="#112E2A" transform="translate(355.25,188.9375)"/>
<path d="M0 0 C0.66 0.33 1.32 0.66 2 1 C1.5153125 1.52207031 1.030625 2.04414062 0.53125 2.58203125 C-3.26079089 6.74598384 -6.75667344 10.95491703 -10 15.5625 C-14.24615461 21.52554159 -18.87914817 26.91943211 -25 31 C-25.99 31 -26.98 31 -28 31 C-28 30.34 -28 29.68 -28 29 C-26.27734375 27.7734375 -26.27734375 27.7734375 -23.9375 26.375 C-15.8156341 21.10402307 -10.66555259 13.35104296 -5.015625 5.63671875 C-3.43524152 3.56935664 -1.90106296 1.76269445 0 0 Z " fill="#626D4E" transform="translate(237,102)"/>
<path d="M0 0 C0.66 0.33 1.32 0.66 2 1 C2 1.66 2 2.32 2 3 C1.2575 3.66 0.515 4.32 -0.25 5 C-3.42933899 8.01721972 -4.63516993 11.53712888 -6.10546875 15.59765625 C-6.94803001 17.86042995 -7.73818635 19.93980244 -9 22 C-9.99 22.33 -10.98 22.66 -12 23 C-9.56362881 13.99280954 -7.10259277 6.3134158 0 0 Z " fill="#D8C884" transform="translate(249,111)"/>
<path d="M0 0 C0 4.15242949 -2.18578441 6.41425935 -4.5625 9.625 C-5.23998291 10.55626709 -5.23998291 10.55626709 -5.93115234 11.50634766 C-9.51988186 16.4155668 -13.20413824 21.24888826 -17 26 C-17.33 25.01 -17.66 24.02 -18 23 C-16.8918457 20.97875977 -16.8918457 20.97875977 -15.17578125 18.69140625 C-14.55896484 17.86189453 -13.94214844 17.03238281 -13.30664062 16.17773438 C-12.64857422 15.31470703 -11.99050781 14.45167969 -11.3125 13.5625 C-10.67376953 12.70333984 -10.03503906 11.84417969 -9.37695312 10.95898438 C-6.4407325 7.04503568 -3.52435878 3.40654216 0 0 Z " fill="#384C3B" transform="translate(222,105)"/>
<path d="M0 0 C3.78400682 0.07323884 4.56653867 0.34616185 7.75 2.75 C9.6875 5.4375 9.6875 5.4375 9.6875 8.4375 C6.3875 7.7775 3.0875 7.1175 -0.3125 6.4375 C-0.6425 5.1175 -0.9725 3.7975 -1.3125 2.4375 C-2.9625 2.4375 -4.6125 2.4375 -6.3125 2.4375 C-3.94209692 0.06709692 -3.24947247 0.09284207 0 0 Z " fill="#AFA972" transform="translate(178.3125,191.5625)"/>
<path d="M0 0 C0.66 0 1.32 0 2 0 C2.03738281 0.66386719 2.07476562 1.32773437 2.11328125 2.01171875 C2.49770996 7.17512397 2.97600459 10.66122397 6 15 C6 15.99 6 16.98 6 18 C3.14721517 17.70488433 2.16421177 17.18767059 0.25 15 C-1.81310118 10.04855718 -1.68760167 5.06280501 0 0 Z " fill="#1F3C38" transform="translate(161,287)"/>
<path d="M0 0 C0.66 0 1.32 0 2 0 C2.19335938 0.62648437 2.38671875 1.25296875 2.5859375 1.8984375 C2.84632813 2.71570313 3.10671875 3.53296875 3.375 4.375 C3.63023437 5.18710938 3.88546875 5.99921875 4.1484375 6.8359375 C4.89854283 9.16459185 4.89854283 9.16459185 7 11 C7.33 11.99 7.66 12.98 8 14 C7.01 14 6.02 14 5 14 C5 13.34 5 12.68 5 12 C2.36 12 -0.28 12 -3 12 C-2.67 10.68 -2.34 9.36 -2 8 C-2.99 7.34 -3.98 6.68 -5 6 C-4.01 5.67 -3.02 5.34 -2 5 C-1.34 5.33 -0.68 5.66 0 6 C0 4.02 0 2.04 0 0 Z " fill="#2C4335" transform="translate(178,180)"/>
<path d="M0 0 C2.96175123 0.61277612 4.38058783 1.25372522 7 3 C9.74518321 3.24187651 9.74518321 3.24187651 12.6875 3.125 C13.68136719 3.10695313 14.67523438 3.08890625 15.69921875 3.0703125 C16.45847656 3.04710937 17.21773438 3.02390625 18 3 C17.67 3.66 17.34 4.32 17 5 C16.01 5.33 15.02 5.66 14 6 C14.33 6.66 14.66 7.32 15 8 C9.33557626 7.63495936 4.99296295 6.9445679 0 4 C0 2.68 0 1.36 0 0 Z " fill="#344E4A" transform="translate(354,302)"/>
<path d="M0 0 C0.33 0 0.66 0 1 0 C1.14695313 0.67804688 1.29390625 1.35609375 1.4453125 2.0546875 C3.79527835 11.80569523 7.49875204 19.75231754 15.6796875 25.84375 C16.11539063 26.2253125 16.55109375 26.606875 17 27 C17 27.66 17 28.32 17 29 C8.30613568 24.98453326 4.39772413 17.61409556 0.1875 9.40234375 C-1.10470025 5.70002 -1.00216976 3.74105417 0 0 Z " fill="#4D5D45" transform="translate(215,190)"/>
<path d="M0 0 C0.66 0.66 1.32 1.32 2 2 C3.65 1.34 5.3 0.68 7 0 C6.01 1.485 6.01 1.485 5 3 C8.3 3.33 11.6 3.66 15 4 C15 4.33 15 4.66 15 5 C5.595 5.495 5.595 5.495 -4 6 C-4 6.66 -4 7.32 -4 8 C-2.68 8.33 -1.36 8.66 0 9 C-2.31 9 -4.62 9 -7 9 C-5.52132701 3.33175355 -5.52132701 3.33175355 -2.9375 1.6875 C-2.298125 1.460625 -1.65875 1.23375 -1 1 C-0.67 0.67 -0.34 0.34 0 0 Z " fill="#374E46" transform="translate(360,176)"/>
<path d="M0 0 C1.08667969 0.01804687 2.17335937 0.03609375 3.29296875 0.0546875 C4.54013672 0.08949219 4.54013672 0.08949219 5.8125 0.125 C6.1425 1.115 6.4725 2.105 6.8125 3.125 C7.8025 3.455 8.7925 3.785 9.8125 4.125 C9.8125 5.115 9.8125 6.105 9.8125 7.125 C4.8125 6.125 -0.1875 5.125 -5.1875 4.125 C-5.1875 3.795 -5.1875 3.465 -5.1875 3.125 C-1.7225 2.63 -1.7225 2.63 1.8125 2.125 C-1.8175 2.125 -5.4475 2.125 -9.1875 2.125 C-5.66070901 -0.22619399 -4.15870515 -0.08943452 0 0 Z " fill="#475E5A" transform="translate(177.1875,276.875)"/>
<path d="M0 0 C1.4540625 0.0309375 1.4540625 0.0309375 2.9375 0.0625 C2.97991723 2.39544775 2.97842937 4.72952567 2.9375 7.0625 C1.9375 8.0625 1.9375 8.0625 -1.125 8.125 C-2.094375 8.104375 -3.06375 8.08375 -4.0625 8.0625 C-4.10491723 5.72955225 -4.10342937 3.39547433 -4.0625 1.0625 C-3.0625 0.0625 -3.0625 0.0625 0 0 Z " fill="#B4BAB4" transform="translate(225.0625,369.9375)"/>
<path d="M0 0 C1.31677734 0.00580078 1.31677734 0.00580078 2.66015625 0.01171875 C4.9375 0.3125 4.9375 0.3125 6.9375 2.3125 C4.2975 2.3125 1.6575 2.3125 -1.0625 2.3125 C-1.0625 2.9725 -1.0625 3.6325 -1.0625 4.3125 C-3.875 6.5 -3.875 6.5 -7.0625 8.3125 C-8.0525 7.9825 -9.0425 7.6525 -10.0625 7.3125 C-7.7283137 2.10546903 -5.90950957 -0.1131423 0 0 Z " fill="#163432" transform="translate(237.0625,277.6875)"/>
<path d="M0 0 C0.66 0 1.32 0 2 0 C2 0.99 2 1.98 2 3 C2.66 3 3.32 3 4 3 C3.67 4.98 3.34 6.96 3 9 C2.401875 9.144375 1.80375 9.28875 1.1875 9.4375 C-0.56150404 9.8872439 -2.28677023 10.42892341 -4 11 C-4.33 11.66 -4.66 12.32 -5 13 C-4.48474397 7.71862571 -2.74522883 4.42778844 0 0 Z " fill="#A8A36E" transform="translate(244,187)"/>
<path d="M0 0 C0.99 0 1.98 0 3 0 C3 2.97 3 5.94 3 9 C3.66 9 4.32 9 5 9 C5.33 8.01 5.66 7.02 6 6 C7.125 9.75 7.125 9.75 6 12 C6.66 12.33 7.32 12.66 8 13 C6.02 13.66 4.04 14.32 2 15 C2 14.34 2 13.68 2 13 C1.34 12.67 0.68 12.34 0 12 C0 8.04 0 4.08 0 0 Z " fill="#435540" transform="translate(326,191)"/>
<path d="M0 0 C2.73277221 2.17220355 4.72888915 3.85827965 5.5546875 7.3359375 C5.78650022 9.56274452 5.94637012 11.76217118 6 14 C4.0625 13.625 4.0625 13.625 2 13 C0.5216774 10.04335481 0.93967217 7.25770263 1 4 C0.01 3.67 -0.98 3.34 -2 3 C-1.34 2.67 -0.68 2.34 0 2 C0 1.34 0 0.68 0 0 Z " fill="#193634" transform="translate(212,295)"/>
<path d="M0 0 C0.66 0 1.32 0 2 0 C1.67 2.31 1.34 4.62 1 7 C3.33075929 6.04134491 3.33075929 6.04134491 5 3 C5 3.99 5 4.98 5 6 C5.99 6.33 6.98 6.66 8 7 C7.01 7.33 6.02 7.66 5 8 C8.63 8.33 12.26 8.66 16 9 C16 9.33 16 9.66 16 10 C13.5622037 10.05397335 11.12560315 10.09365616 8.6875 10.125 C7.65206055 10.15013672 7.65206055 10.15013672 6.59570312 10.17578125 C2.82864604 10.21217794 1.21568296 10.14378864 -2 8 C-1.125 1.125 -1.125 1.125 0 0 Z " fill="#58654A" transform="translate(344,179)"/>
<path d="M0 0 C1.65 0 3.3 0 5 0 C5 0.66 5 1.32 5 2 C4.01 2.495 4.01 2.495 3 3 C3.99 3.33 4.98 3.66 6 4 C6 5.65 6 7.3 6 9 C4.34385343 9.38218767 2.67542976 9.71395102 1 10 C0 9 0 9 -0.09765625 6.93359375 C-0.08605469 6.10988281 -0.07445312 5.28617187 -0.0625 4.4375 C-0.05347656 3.61121094 -0.04445313 2.78492188 -0.03515625 1.93359375 C-0.02355469 1.29550781 -0.01195312 0.65742188 0 0 Z " fill="#96A09C" transform="translate(285,371)"/>
<path d="M0 0 C1.9375 0.375 1.9375 0.375 4 1 C4.33 1.66 4.66 2.32 5 3 C7.30965848 4.05352843 9.6429774 5.05719096 12 6 C8.18243176 7.37432457 4.92744671 6.67975039 1 6 C1 5.34 1 4.68 1 4 C-1.31 4 -3.62 4 -6 4 C-6 3.34 -6 2.68 -6 2 C-4.02 2 -2.04 2 0 2 C0 1.34 0 0.68 0 0 Z " fill="#90936E" transform="translate(165,182)"/>
<path d="M0 0 C-0.375 1.9375 -0.375 1.9375 -1 4 C-3.84838121 5.4241906 -6.32787908 5.16995508 -9.5 5.1875 C-10.6653125 5.20167969 -11.830625 5.21585937 -13.03125 5.23046875 C-16 5 -16 5 -18 3 C-17.08476562 2.86722656 -16.16953125 2.73445313 -15.2265625 2.59765625 C-14.03804688 2.42105469 -12.84953125 2.24445313 -11.625 2.0625 C-10.44164062 1.88847656 -9.25828125 1.71445312 -8.0390625 1.53515625 C-4.9579124 0.99258869 -3.13663498 0 0 0 Z " fill="#163431" transform="translate(289,303)"/>
<path d="M0 0 C3.38879801 0.3388798 4.66384629 1.04066581 7.125 3.3125 C3.64058574 4.47397142 0.78366885 4.3125 -2.875 4.3125 C-4.21042939 4.63733418 -5.54461551 4.9675855 -6.875 5.3125 C-7.535 4.9825 -8.195 4.6525 -8.875 4.3125 C-9.205 5.3025 -9.535 6.2925 -9.875 7.3125 C-9.545 5.3325 -9.215 3.3525 -8.875 1.3125 C-8.25625 1.51875 -7.6375 1.725 -7 1.9375 C-5.948125 2.123125 -5.948125 2.123125 -4.875 2.3125 C-2.875 0.3125 -2.875 0.3125 0 0 Z " fill="#41533F" transform="translate(274.875,105.6875)"/>
<path d="M0 0 C1.32 0.66 2.64 1.32 4 2 C4.042721 3.66611905 4.04063832 5.33382885 4 7 C3 8 3 8 0.4375 8.0625 C-0.366875 8.041875 -1.17125 8.02125 -2 8 C-2.6875 5.6875 -2.6875 5.6875 -3 3 C-1.5625 1.1875 -1.5625 1.1875 0 0 Z " fill="#8C9893" transform="translate(343,358)"/>
<path d="M0 0 C1.32 0 2.64 0 4 0 C4.33 1.65 4.66 3.3 5 5 C5.66 5 6.32 5 7 5 C6.67 6.32 6.34 7.64 6 9 C4.35 9 2.7 9 1 9 C0.67 6.03 0.34 3.06 0 0 Z " fill="#B3B9B4" transform="translate(362,348)"/>
<path d="M0 0 C4.85244485 -0.38819559 8.14014025 -0.43747251 12.5625 1.8125 C13.366875 2.534375 14.17125 3.25625 15 4 C15 4.99 15 5.98 15 7 C10.125 6.125 10.125 6.125 9 5 C7.48530552 4.76807135 5.96245438 4.58784762 4.4375 4.4375 C3.61121094 4.35371094 2.78492188 4.26992188 1.93359375 4.18359375 C1.29550781 4.12300781 0.65742188 4.06242187 0 4 C0 3.67 0 3.34 0 3 C3.465 2.505 3.465 2.505 7 2 C4.69 1.67 2.38 1.34 0 1 C0 0.67 0 0.34 0 0 Z " fill="#36504C" transform="translate(274,277)"/>
<path d="M0 0 C1.67542976 0.28604898 3.34385343 0.61781233 5 1 C6.125 4.75 6.125 4.75 5 7 C3.33388095 7.042721 1.66617115 7.04063832 0 7 C-1 6 -1 6 -1.125 3.5 C-1 1 -1 1 0 0 Z " fill="#8A9692" transform="translate(405,321)"/>
<path d="M0 0 C2.29109597 -0.08075665 4.58299267 -0.13907731 6.875 -0.1875 C8.78925781 -0.23970703 8.78925781 -0.23970703 10.7421875 -0.29296875 C11.81726563 -0.19628906 12.89234375 -0.09960938 14 0 C16.4294516 3.6441774 16.16179575 5.71241272 16 10 C15.67 10 15.34 10 15 10 C15 8.02 15 6.04 15 4 C14.34 4 13.68 4 13 4 C13 5.65 13 7.3 13 9 C12.67 9 12.34 9 12 9 C11.34 7.02 10.68 5.04 10 3 C6.7 2.34 3.4 1.68 0 1 C0 0.67 0 0.34 0 0 Z " fill="#314B47" transform="translate(201,280)"/>
<path d="M0 0 C6.11774896 -0.49940808 9.02495953 0.75099398 14 4 C14 4.66 14 5.32 14 6 C13.01 5.690625 12.02 5.38125 11 5.0625 C7.02268878 3.91566793 3.11232621 3.43287644 -1 3 C-0.67 2.01 -0.34 1.02 0 0 Z " fill="#203C39" transform="translate(362,277)"/>
<path d="M0 0 C0.66 0.33 1.32 0.66 2 1 C2 1.99 2 2.98 2 4 C1.26394531 4.18175781 0.52789062 4.36351563 -0.23046875 4.55078125 C-7.49184495 6.38159253 -7.49184495 6.38159253 -14 10 C-14.99 9.34 -15.98 8.68 -17 8 C-15.91332031 7.51080078 -15.91332031 7.51080078 -14.8046875 7.01171875 C-13.83789062 6.57472656 -12.87109375 6.13773437 -11.875 5.6875 C-10.87339844 5.23503906 -9.87179688 4.78257813 -8.83984375 4.31640625 C-6.66375812 3.3076843 -4.54944343 2.25733875 -2.4375 1.125 C-1.2309375 0.568125 -1.2309375 0.568125 0 0 Z " fill="#5C684B" transform="translate(257,89)"/>
<path d="M0 0 C2.31 0.33 4.62 0.66 7 1 C7 1.99 7 2.98 7 4 C6.01 4.495 6.01 4.495 5 5 C4.67 5.99 4.34 6.98 4 8 C2.68 8 1.36 8 0 8 C0 5.36 0 2.72 0 0 Z " fill="#A0A9A4" transform="translate(189,362)"/>
<path d="M0 0 C0.99 0.33 1.98 0.66 3 1 C-1.87539786 5.26597313 -6.94095224 8.78149659 -13.5 9.25 C-14.325 9.1675 -15.15 9.085 -16 9 C-12.6261206 6.1659413 -9.04083987 4.70140626 -5 3 C-3.63875 2.13375 -3.63875 2.13375 -2.25 1.25 C-1.5075 0.8375 -0.765 0.425 0 0 Z " fill="#5B674B" transform="translate(289,217)"/>
<path d="M0 0 C0 0.33 0 0.66 0 1 C-1.98 1.66 -3.96 2.32 -6 3 C-5.34 5.31 -4.68 7.62 -4 10 C-6.64 8.68 -9.28 7.36 -12 6 C-11 2 -11 2 -9.375 0.75 C-6.1989627 -0.25295915 -3.30771122 -0.12721966 0 0 Z " fill="#A19D6B" transform="translate(279,109)"/>
<path d="M0 0 C0.66 0.33 1.32 0.66 2 1 C1 4 1 4 -0.92578125 5.203125 C-1.71339844 5.54859375 -2.50101562 5.8940625 -3.3125 6.25 C-4.09238281 6.60578125 -4.87226563 6.9615625 -5.67578125 7.328125 C-8.24607227 8.0711335 -9.51383429 7.88750996 -12 7 C-12 6.34 -12 5.68 -12 5 C-10.82630859 4.58427734 -10.82630859 4.58427734 -9.62890625 4.16015625 C-8.61699219 3.79792969 -7.60507812 3.43570313 -6.5625 3.0625 C-5.55316406 2.70285156 -4.54382813 2.34320313 -3.50390625 1.97265625 C-1.09686255 1.23122361 -1.09686255 1.23122361 0 0 Z " fill="#667050" transform="translate(283,212)"/>
<path d="M0 0 C0.66 0.99 1.32 1.98 2 3 C0.73147606 4.60599349 -0.539911 6.20972575 -1.8125 7.8125 C-2.87404297 9.15248047 -2.87404297 9.15248047 -3.95703125 10.51953125 C-7.17323031 14.42447657 -7.17323031 14.42447657 -9 16 C-9.66 16 -10.32 16 -11 16 C-9.20893191 11.98800747 -6.6085779 9.20252518 -3.65625 6 C-2.06105306 4.07372445 -1.01567082 2.27510263 0 0 Z " fill="#465741" transform="translate(302,202)"/>
<path d="M0 0 C1.7744761 2.66171415 2.85029181 4.91989066 4 7.875 C4.495 9.13957031 4.495 9.13957031 5 10.4296875 C5.33 11.27789062 5.66 12.12609375 6 13 C6.66507375 14.66730295 7.33127496 16.33415816 8 18 C7.34 18.33 6.68 18.66 6 19 C5.01585567 17.08588443 4.03786651 15.1686033 3.0625 13.25 C2.51722656 12.18265625 1.97195313 11.1153125 1.41015625 10.015625 C-1.36226415 4.08679245 -1.36226415 4.08679245 0 0 Z " fill="#3A4E3C" transform="translate(294,135)"/>
<path d="M0 0 C1 3 1 3 1 5 C3.97 5.99 6.94 6.98 10 8 C10 8.33 10 8.66 10 9 C4.06997733 9.37851209 -0.47239641 8.10575375 -6 6 C-6 5.34 -6 4.68 -6 4 C-4.36368108 2.95107762 -2.69514137 1.95093297 -1 1 C-0.67 0.67 -0.34 0.34 0 0 Z " fill="#536147" transform="translate(203,129)"/>
<path d="M0 0 C1.98 0 3.96 0 6 0 C5.67 1.65 5.34 3.3 5 5 C4.01 5 3.02 5 2 5 C2 5.66 2 6.32 2 7 C2.99 7.33 3.98 7.66 5 8 C3.35 8 1.7 8 0 8 C0 5.36 0 2.72 0 0 Z " fill="#8F9A96" transform="translate(240,372)"/>
<path d="M0 0 C1.32 0.33 2.64 0.66 4 1 C5.125 4.75 5.125 4.75 4 7 C2.35 7 0.7 7 -1 7 C-2 4 -2 4 -1.0625 1.8125 C-0.5365625 0.9153125 -0.5365625 0.9153125 0 0 Z " fill="#84918D" transform="translate(132,334)"/>
<path d="M0 0 C1.66611905 -0.042721 3.33382885 -0.04063832 5 0 C6 1 6 1 6.0625 4.0625 C6.041875 5.031875 6.02125 6.00125 6 7 C2.73045798 6.43628586 1.17424117 5.50037734 -1 3 C-0.67 2.01 -0.34 1.02 0 0 Z " fill="#828F8B" transform="translate(422,306)"/>
<path d="M0 0 C0.99 0 1.98 0 3 0 C3 0.66 3 1.32 3 2 C2.01 2 1.02 2 0 2 C0 3.32 0 4.64 0 6 C0.66 5.67 1.32 5.34 2 5 C2 4.34 2 3.68 2 3 C2.99 3 3.98 3 5 3 C4.67 4.65 4.34 6.3 4 8 C2.02 8 0.04 8 -2 8 C-2.125 5.125 -2.125 5.125 -2 2 C-1.34 1.34 -0.68 0.68 0 0 Z " fill="#7A8985" transform="translate(321,365)"/>
<path d="M0 0 C0 0.66 0 1.32 0 2 C1.32 2.33 2.64 2.66 4 3 C-1.3212615 4.08318169 -6.63486869 5.152874 -12 6 C-8.86750183 1.05395025 -5.76789955 0 0 0 Z " fill="#BAB176" transform="translate(342,198)"/>
<path d="M0 0 C1.32 0 2.64 0 4 0 C4.33 2.31 4.66 4.62 5 7 C3.35 7.33 1.7 7.66 0 8 C0 5.36 0 2.72 0 0 Z " fill="#82908B" transform="translate(276,373)"/>
<path d="M0 0 C1.32 0 2.64 0 4 0 C3.67 2.64 3.34 5.28 3 8 C1.68 7.67 0.36 7.34 -1 7 C-1.04254356 5.00045254 -1.04080783 2.99958364 -1 1 C-0.67 0.67 -0.34 0.34 0 0 Z " fill="#889591" transform="translate(201,366)"/>
<path d="M0 0 C1.65 0 3.3 0 5 0 C5.66 1.98 6.32 3.96 7 6 C6.34 6 5.68 6 5 6 C4.67 6.66 4.34 7.32 4 8 C3.34 8 2.68 8 2 8 C0.23537317 4.91190305 0 3.76687864 0 0 Z " fill="#7D8B87" transform="translate(371,345)"/>
<path d="M0 0 C0.66 0 1.32 0 2 0 C2.3125 3.25 2.3125 3.25 2 7 C-0.71913126 10.1190035 -2.17373382 10.93764029 -6.3125 11.25 C-7.199375 11.1675 -8.08625 11.085 -9 11 C-7 9 -7 9 -3.9375 7.75 C-0.677575 6.26759364 -0.677575 6.26759364 -0.125 2.8125 C-0.08375 1.884375 -0.0425 0.95625 0 0 Z " fill="#13322F" transform="translate(375,298)"/>
<path d="M0 0 C1.18414294 3.55242882 0.69535532 4.69830562 -0.4375 8.1875 C-0.72496094 9.08855469 -1.01242188 9.98960937 -1.30859375 10.91796875 C-1.53675781 11.60503906 -1.76492187 12.29210937 -2 13 C-3.93302372 9.4701306 -4.26403152 7.04848324 -4 3 C-3 1 -3 1 0 0 Z " fill="#143230" transform="translate(229,284)"/>
<path d="M0 0 C0.33 0.66 0.66 1.32 1 2 C3.02463255 2.65213292 3.02463255 2.65213292 5 3 C4.2884375 3.6496875 4.2884375 3.6496875 3.5625 4.3125 C1.76313043 6.02309613 1.76313043 6.02309613 1 9 C0.34 9 -0.32 9 -1 9 C-0.34 7.02 0.32 5.04 1 3 C-2.15133488 4.83827868 -5.11964908 6.75972706 -8 9 C-6.75023244 5.34683329 -6.32901247 4.21934164 -3 2 C-2.01 2 -1.02 2 0 2 C0 1.34 0 0.68 0 0 Z " fill="#B1AA72" transform="translate(254,113)"/>
<path d="M0 0 C2.0625 0.4375 2.0625 0.4375 4 1 C4 2.32 4 3.64 4 5 C1.5 6.75 1.5 6.75 -1 8 C-1 7.01 -1 6.02 -1 5 C-1.66 5 -2.32 5 -3 5 C-1.125 1.125 -1.125 1.125 0 0 Z " fill="#768581" transform="translate(77,280)"/>
<path d="M0 0 C2.64 0.66 5.28 1.32 8 2 C6.68 2.33 5.36 2.66 4 3 C4 3.66 4 4.32 4 5 C2.35 5 0.7 5 -1 5 C-1.33 5.99 -1.66 6.98 -2 8 C-2.66 7.67 -3.32 7.34 -4 7 C-3.02391783 4.07175348 -1.89213369 2.38573379 0 0 Z " fill="#344939" transform="translate(341,187)"/>
<path d="M0 0 C1.32 0.33 2.64 0.66 4 1 C4 1.66 4 2.32 4 3 C3.34 3 2.68 3 2 3 C1.67 4.65 1.34 6.3 1 8 C0.01 8 -0.98 8 -2 8 C-2.6875 6.25 -2.6875 6.25 -3 4 C-1.5625 1.75 -1.5625 1.75 0 0 Z " fill="#83908C" transform="translate(142,340)"/>
<path d="M0 0 C5.39449293 -0.27429625 8.51925805 -0.36055646 13 3 C11 5 11 5 9 6 C6.8359375 5.66015625 6.8359375 5.66015625 4.375 5.0625 C3.55773437 4.86785156 2.74046875 4.67320312 1.8984375 4.47265625 C0.95871094 4.23869141 0.95871094 4.23869141 0 4 C0 3.67 0 3.34 0 3 C1.98 2.67 3.96 2.34 6 2 C3.03 1.505 3.03 1.505 0 1 C0 0.67 0 0.34 0 0 Z " fill="#3A534F" transform="translate(236,277)"/>
<path d="M0 0 C1.98 0.495 1.98 0.495 4 1 C3.67 1.66 3.34 2.32 3 3 C3.66 3.33 4.32 3.66 5 4 C5 5.32 5 6.64 5 8 C3.35 8 1.7 8 0 8 C-1.125 2.25 -1.125 2.25 0 0 Z " fill="#83918C" transform="translate(296,370)"/>
<path d="M0 0 C0.99 0.33 1.98 0.66 3 1 C2.34 1 1.68 1 1 1 C1.33 1.66 1.66 2.32 2 3 C3.32 2.67 4.64 2.34 6 2 C5.67 3.65 5.34 5.3 5 7 C3.35 7 1.7 7 0 7 C-0.38133299 5.0085944 -0.71325582 3.00720923 -1 1 C-0.67 0.67 -0.34 0.34 0 0 Z " fill="#71817D" transform="translate(395,329)"/>
<path d="M0 0 C0.66 0 1.32 0 2 0 C2 4.29 2 8.58 2 13 C1.34 13 0.68 13 0 13 C-1.25069801 10.49860398 -1.13302467 8.72607309 -1.125 5.9375 C-1.12757813 5.03902344 -1.13015625 4.14054687 -1.1328125 3.21484375 C-1 1 -1 1 0 0 Z " fill="#0C2B29" transform="translate(264,286)"/>
<path d="M0 0 C0.66 0.66 1.32 1.32 2 2 C-0.97 2 -3.94 2 -7 2 C-7 2.66 -7 3.32 -7 4 C-8.65 4 -10.3 4 -12 4 C-11.67 3.01 -11.34 2.02 -11 1 C-7.51440001 -0.47467692 -3.71817742 -0.20656541 0 0 Z " fill="#11302D" transform="translate(179,278)"/>
<path d="M0 0 C0.33 0 0.66 0 1 0 C1.06058594 0.61488281 1.12117188 1.22976562 1.18359375 1.86328125 C1.26738281 2.67152344 1.35117187 3.47976562 1.4375 4.3125 C1.51871094 5.11300781 1.59992188 5.91351563 1.68359375 6.73828125 C1.95265693 9.16087179 1.95265693 9.16087179 3 12 C3.66 12.33 4.32 12.66 5 13 C3.0625 13.5625 3.0625 13.5625 1 14 C0.67 13.67 0.34 13.34 0 13 C-0.99 13.66 -1.98 14.32 -3 15 C-2.690625 14.195625 -2.38125 13.39125 -2.0625 12.5625 C-0.81434483 8.37750913 -0.3662304 4.33693899 0 0 Z " fill="#C3BC8F" transform="translate(359,165)"/>
<path d="M0 0 C1.1484375 1.609375 1.1484375 1.609375 2 4 C1.1015625 7.015625 1.1015625 7.015625 -0.375 10.25 C-0.85710937 11.32765625 -1.33921875 12.4053125 -1.8359375 13.515625 C-2.22007812 14.33546875 -2.60421875 15.1553125 -3 16 C-4.1484375 14.390625 -4.1484375 14.390625 -5 12 C-4.1015625 8.984375 -4.1015625 8.984375 -2.625 5.75 C-2.14289063 4.67234375 -1.66078125 3.5946875 -1.1640625 2.484375 C-0.77992188 1.66453125 -0.39578125 0.8446875 0 0 Z " fill="#CDBF7F" transform="translate(241,112)"/>
<path d="M0 0 C1.65 0.33 3.3 0.66 5 1 C5 1.66 5 2.32 5 3 C4.34 3 3.68 3 3 3 C3 4.32 3 5.64 3 7 C1.35 6.67 -0.3 6.34 -2 6 C-1.67 5.34 -1.34 4.68 -1 4 C-0.64830932 2.67139075 -0.31229724 1.33841672 0 0 Z " fill="#84918D" transform="translate(168,354)"/>
<path d="M0 0 C5.94 2.475 5.94 2.475 12 5 C10.02 5.99 10.02 5.99 8 7 C5.640625 6.1015625 5.640625 6.1015625 3.25 4.625 C2.45078125 4.14289063 1.6515625 3.66078125 0.828125 3.1640625 C0.22484375 2.77992188 -0.3784375 2.39578125 -1 2 C-0.67 1.34 -0.34 0.68 0 0 Z " fill="#6A7352" transform="translate(232,218)"/>
<path d="M0 0 C2.625 0.375 2.625 0.375 5 1 C5 1.33 5 1.66 5 2 C3.35 2 1.7 2 0 2 C0.99 3.485 0.99 3.485 2 5 C2.33 4.34 2.66 3.68 3 3 C3.33 4.32 3.66 5.64 4 7 C2.35 7 0.7 7 -1 7 C-1.625 4.625 -1.625 4.625 -2 2 C-1.34 1.34 -0.68 0.68 0 0 Z " fill="#697A77" transform="translate(211,368)"/>
<path d="M0 0 C0.66 0 1.32 0 2 0 C2.66 2.64 3.32 5.28 4 8 C2.68 8 1.36 8 0 8 C0 8.66 0 9.32 0 10 C-0.99 9.67 -1.98 9.34 -3 9 C-2.67 8.67 -2.34 8.34 -2 8 C-2.99 7.34 -3.98 6.68 -5 6 C-4.01 5.67 -3.02 5.34 -2 5 C-1.34 5.33 -0.68 5.66 0 6 C0 4.02 0 2.04 0 0 Z " fill="#526047" transform="translate(178,180)"/>
<path d="M0 0 C2.0625 0.4375 2.0625 0.4375 4 1 C4.33 2.65 4.66 4.3 5 6 C4.01 5.67 3.02 5.34 2 5 C2 5.66 2 6.32 2 7 C1.34 7 0.68 7 0 7 C-0.38133299 5.0085944 -0.71325582 3.00720923 -1 1 C-0.67 0.67 -0.34 0.34 0 0 Z " fill="#697A77" transform="translate(331,362)"/>
<path d="M0 0 C2 1.375 2 1.375 4 3 C4 3.66 4 4.32 4 5 C3.01 5.495 3.01 5.495 2 6 C2 6.66 2 7.32 2 8 C0.0625 7.1875 0.0625 7.1875 -2 6 C-2.33 5.01 -2.66 4.02 -3 3 C-2.01 2.67 -1.02 2.34 0 2 C0 1.34 0 0.68 0 0 Z " fill="#6A7A77" transform="translate(432,297)"/>
<path d="M0 0 C0.33 0.66 0.66 1.32 1 2 C0.30519531 1.85691406 -0.38960937 1.71382812 -1.10546875 1.56640625 C-4.16693345 0.96733421 -7.23455833 0.44485302 -10.3125 -0.0625 C-11.38113281 -0.23910156 -12.44976562 -0.41570312 -13.55078125 -0.59765625 C-14.35902344 -0.73042969 -15.16726562 -0.86320313 -16 -1 C-16 -1.33 -16 -1.66 -16 -2 C-9.66994194 -3.19137147 -5.67875836 -3.19430158 0 0 Z " fill="#C1B679" transform="translate(192,202)"/>
<path d="M0 0 C6.0546875 -0.1953125 6.0546875 -0.1953125 8 0 C10 2 10 2 10 5 C6.7 4.34 3.4 3.68 0 3 C0 2.01 0 1.02 0 0 Z " fill="#787E58" transform="translate(178,195)"/>
<path d="M0 0 C0.66 0 1.32 0 2 0 C2 0.99 2 1.98 2 3 C-3.445 4.485 -3.445 4.485 -9 6 C-8.67 4.68 -8.34 3.36 -8 2 C-5.53925394 0.76962697 -3.7202437 1 -1 1 C-0.67 0.67 -0.34 0.34 0 0 Z " fill="#6C7452" transform="translate(344,194)"/>
<path d="M0 0 C0 1.98 0 3.96 0 6 C-0.99 6.495 -0.99 6.495 -2 7 C-2 6.34 -2 5.68 -2 5 C-3.32 5 -4.64 5 -6 5 C-3.74193548 0 -3.74193548 0 0 0 Z " fill="#687976" transform="translate(153,346)"/>
<path d="M0 0 C1.67542976 0.28604898 3.34385343 0.61781233 5 1 C5.33 2.32 5.66 3.64 6 5 C4.35 4.01 2.7 3.02 1 2 C1.7763932 5.0745356 1.7763932 5.0745356 4 7 C2.68 7 1.36 7 0 7 C-0.38133299 5.0085944 -0.71325582 3.00720923 -1 1 C-0.67 0.67 -0.34 0.34 0 0 Z " fill="#6E7E7A" transform="translate(414,313)"/>
<path d="M0 0 C0.66 0.33 1.32 0.66 2 1 C1.21625 1.845625 0.4325 2.69125 -0.375 3.5625 C-3.16931023 6.87925917 -4.07512901 9.79604094 -5 14 C-5.33 14 -5.66 14 -6 14 C-6.50547389 8.6925242 -5.22743563 6.17668141 -2 2 C-1.34 1.34 -0.68 0.68 0 0 Z " fill="#ADB7B1" transform="translate(271,282)"/>
<path d="M0 0 C2.0625 0.4375 2.0625 0.4375 4 1 C3.01 1.33 2.02 1.66 1 2 C0.67 2.99 0.34 3.98 0 5 C0.66 5 1.32 5 2 5 C2 4.34 2 3.68 2 3 C2.99 3 3.98 3 5 3 C4.67 4.32 4.34 5.64 4 7 C2.35 6.67 0.7 6.34 -1 6 C-1.042721 4.33388095 -1.04063832 2.66617115 -1 1 C-0.67 0.67 -0.34 0.34 0 0 Z " fill="#687975" transform="translate(223,371)"/>
<path d="M0 0 C0.66 0.33 1.32 0.66 2 1 C2 1.33 2 1.66 2 2 C3.32 2 4.64 2 6 2 C5.67 3.65 5.34 5.3 5 7 C4.34 7 3.68 7 3 7 C2.67 6.34 2.34 5.68 2 5 C1.01 4.67 0.02 4.34 -1 4 C-0.67 2.68 -0.34 1.36 0 0 Z " fill="#7C8A86" transform="translate(443,281)"/>
<path d="M0 0 C2.64 0 5.28 0 8 0 C8 0.66 8 1.32 8 2 C8.66 2.33 9.32 2.66 10 3 C2.25 3.125 2.25 3.125 0 2 C0 1.34 0 0.68 0 0 Z " fill="#1D3A37" transform="translate(360,291)"/>
<path d="M0 0 C0.66 0.33 1.32 0.66 2 1 C1.67 1.66 1.34 2.32 1 3 C1.66 3.33 2.32 3.66 3 4 C1.1875 5.5625 1.1875 5.5625 -1 7 C-1.99 6.67 -2.98 6.34 -4 6 C-2.84826645 3.53199953 -1.95216435 1.95216435 0 0 Z " fill="#3A5350" transform="translate(166,279)"/>
<path d="M0 0 C1 3 1 3 0.00390625 5.26171875 C-0.47175781 6.06222656 -0.94742188 6.86273438 -1.4375 7.6875 C-1.91058594 8.49574219 -2.38367188 9.30398437 -2.87109375 10.13671875 C-3.24363281 10.75160156 -3.61617187 11.36648437 -4 12 C-4.65234375 10.265625 -4.65234375 10.265625 -5 8 C-4.00390625 5.859375 -4.00390625 5.859375 -2.5625 3.75 C-2.08941406 3.04359375 -1.61632812 2.3371875 -1.12890625 1.609375 C-0.75636719 1.07828125 -0.38382813 0.5471875 0 0 Z " fill="#455641" transform="translate(244,188)"/>
<path d="M0 0 C1.8871875 0.0309375 1.8871875 0.0309375 3.8125 0.0625 C2.10421079 2.16883718 1.29101584 3.00051608 -1.44921875 3.35546875 C-2.24972656 3.32066406 -3.05023438 3.28585938 -3.875 3.25 C-5.08736328 3.20939453 -5.08736328 3.20939453 -6.32421875 3.16796875 C-7.24654297 3.11576172 -7.24654297 3.11576172 -8.1875 3.0625 C-6.45706736 -0.39836529 -3.47359009 -0.0569441 0 0 Z " fill="#A19D6B" transform="translate(356.1875,184.9375)"/>
<path d="M0 0 C1.32 0.66 2.64 1.32 4 2 C4 2.66 4 3.32 4 4 C1.69 4.66 -0.62 5.32 -3 6 C-2.42655063 3.13275314 -2.1385485 2.1385485 0 0 Z " fill="#7B8A86" transform="translate(103,309)"/>
<path d="M0 0 C0.66 0.33 1.32 0.66 2 1 C1.01 3.31 0.02 5.62 -1 8 C-2.32 7.67 -3.64 7.34 -5 7 C-3.70700306 4.11562221 -2.34058637 2.12780579 0 0 Z " fill="#405955" transform="translate(232,278)"/>
<path d="M0 0 C0.598125 0.20625 1.19625 0.4125 1.8125 0.625 C1.4825 1.615 1.1525 2.605 0.8125 3.625 C-2.1875 4.625 -2.1875 4.625 -5.1875 3.625 C-5.1875 2.965 -5.1875 2.305 -5.1875 1.625 C-2.1875 -0.375 -2.1875 -0.375 0 0 Z " fill="#7E8C88" transform="translate(73.1875,272.375)"/>
<path d="M0 0 C0.99 0 1.98 0 3 0 C3.125 5.75 3.125 5.75 2 8 C1.34 8 0.68 8 0 8 C0 5.36 0 2.72 0 0 Z " fill="#9EA8A3" transform="translate(233,372)"/>
<path d="M0 0 C0.66 0.33 1.32 0.66 2 1 C1.67 1.66 1.34 2.32 1 3 C1.66 3 2.32 3 3 3 C3 3.66 3 4.32 3 5 C3.99 4.67 4.98 4.34 6 4 C5.67 4.99 5.34 5.98 5 7 C2.13275314 6.42655063 1.1385485 6.1385485 -1 4 C-0.625 1.875 -0.625 1.875 0 0 Z " fill="#697A76" transform="translate(437,289)"/>
<path d="M0 0 C0.99 0 1.98 0 3 0 C3.33 3.3 3.66 6.6 4 10 C3.01 10.495 3.01 10.495 2 11 C0.80712589 7.12315913 0 4.08378077 0 0 Z " fill="#8B8C61" transform="translate(326,191)"/>
<path d="M0 0 C0.79921875 0.11085938 1.5984375 0.22171875 2.421875 0.3359375 C3.32679688 0.47902344 3.32679688 0.47902344 4.25 0.625 C4.25 0.955 4.25 1.285 4.25 1.625 C3.64671875 1.67398438 3.0434375 1.72296875 2.421875 1.7734375 C1.22304688 1.88558594 1.22304688 1.88558594 0 2 C-1.18335938 2.10441406 -1.18335938 2.10441406 -2.390625 2.2109375 C-4.835877 2.64007113 -6.59836903 3.41100638 -8.75 4.625 C-8.75 3.635 -8.75 2.645 -8.75 1.625 C-5.5750906 -0.2828584 -3.64414789 -0.5359041 0 0 Z " fill="#5E694C" transform="translate(255.75,108.375)"/>
<path d="M0 0 C1.485 0.99 1.485 0.99 3 2 C3.33 1.34 3.66 0.68 4 0 C4.66 0 5.32 0 6 0 C5.34 1.98 4.68 3.96 4 6 C3.01 6 2.02 6 1 6 C0.67 4.02 0.34 2.04 0 0 Z " fill="#73837F" transform="translate(258,374)"/>
<path d="M0 0 C1.9375 0.3125 1.9375 0.3125 4 1 C4.33 1.99 4.66 2.98 5 4 C4.67 4.66 4.34 5.32 4 6 C2.35 6 0.7 6 -1 6 C-0.34 5.34 0.32 4.68 1 4 C0.6814823 1.89179203 0.6814823 1.89179203 0 0 Z " fill="#B6BCB6" transform="translate(415,315)"/>
<path d="M0 0 C0.99 0.33 1.98 0.66 3 1 C3 3.31 3 5.62 3 8 C2.01 8 1.02 8 0 8 C0 5.36 0 2.72 0 0 Z " fill="#0C2C29" transform="translate(252,290)"/>
<path d="M0 0 C0.66 0 1.32 0 2 0 C2 0.66 2 1.32 2 2 C4.64 2 7.28 2 10 2 C10 2.33 10 2.66 10 3 C6.7 3.66 3.4 4.32 0 5 C0 4.34 0 3.68 0 3 C-0.66 2.67 -1.32 2.34 -2 2 C-1.34 1.34 -0.68 0.68 0 0 Z " fill="#3A534F" transform="translate(359,278)"/>
<path d="M0 0 C0.33 0.99 0.66 1.98 1 3 C-1.97 5.475 -1.97 5.475 -5 8 C-5.66 7.67 -6.32 7.34 -7 7 C-4.66666667 4.66666667 -2.33333333 2.33333333 0 0 Z " fill="#4A5A43" transform="translate(291,206)"/>
<path d="M0 0 C0.66 0 1.32 0 2 0 C3.125 3.75 3.125 3.75 2 6 C0.35 5.67 -1.3 5.34 -3 5 C-2.34 4.67 -1.68 4.34 -1 4 C-0.34786708 1.97536745 -0.34786708 1.97536745 0 0 Z " fill="#B2BAB5" transform="translate(160,172)"/>
<path d="M0 0 C0.33 0 0.66 0 1 0 C0.38461538 6.52307692 0.38461538 6.52307692 -1.5625 8.9375 C-2.036875 9.288125 -2.51125 9.63875 -3 10 C-3.66 9.67 -4.32 9.34 -5 9 C-3.35 6.03 -1.7 3.06 0 0 Z " fill="#42543F" transform="translate(237,117)"/>
<path d="M0 0 C0.66 0 1.32 0 2 0 C1.67 2.64 1.34 5.28 1 8 C-0.32 7.67 -1.64 7.34 -3 7 C-2.38722388 4.03824877 -1.74627478 2.61941217 0 0 Z " fill="#818F8B" transform="translate(119,324)"/>
<path d="M0 0 C1.98 0 3.96 0 6 0 C5.67 1.32 5.34 2.64 5 4 C4.67 3.34 4.34 2.68 4 2 C3.34 2.66 2.68 3.32 2 4 C1.01 4 0.02 4 -1 4 C-0.67 2.68 -0.34 1.36 0 0 Z " fill="#C9CCC6" transform="translate(83,290)"/>
<path d="M0 0 C3.875 0.875 3.875 0.875 5 2 C5.04080783 3.99958364 5.04254356 6.00045254 5 8 C4.67 8 4.34 8 4 8 C3.67 6.35 3.34 4.7 3 3 C1.35 3.66 -0.3 4.32 -2 5 C-1.34 3.35 -0.68 1.7 0 0 Z " fill="#4D5D44" transform="translate(202,194)"/>
<path d="M0 0 C1.32 0.33 2.64 0.66 4 1 C2.68 1.33 1.36 1.66 0 2 C0.66 4.64 1.32 7.28 2 10 C0.68 8.68 -0.64 7.36 -2 6 C-1.34 4.02 -0.68 2.04 0 0 Z " fill="#8B8D62" transform="translate(165,170)"/>
<path d="M0 0 C0.66 0.66 1.32 1.32 2 2 C0.71475739 2.86380259 -0.57842419 3.71580369 -1.875 4.5625 C-2.59429687 5.03816406 -3.31359375 5.51382813 -4.0546875 6.00390625 C-4.69664062 6.33261719 -5.33859375 6.66132813 -6 7 C-6.66 6.67 -7.32 6.34 -8 6 C-5.36 4.02 -2.72 2.04 0 0 Z " fill="#586549" transform="translate(231,126)"/>
<path d="M0 0 C0.66 0 1.32 0 2 0 C2.33 2.31 2.66 4.62 3 7 C2.34 7 1.68 7 1 7 C-0.38232443 5.37373596 -1.71937515 3.7074998 -3 2 C-2.01 2 -1.02 2 0 2 C0 1.34 0 0.68 0 0 Z " fill="#7C8A86" transform="translate(382,339)"/>
<path d="M0 0 C1.32 0.66 2.64 1.32 4 2 C3.67 2.66 3.34 3.32 3 4 C2.01 4.33 1.02 4.66 0 5 C-0.33 5.66 -0.66 6.32 -1 7 C-1.66 7 -2.32 7 -3 7 C-3 6.01 -3 5.02 -3 4 C-2.34 3.67 -1.68 3.34 -1 3 C-0.67 2.01 -0.34 1.02 0 0 Z " fill="#7F8D89" transform="translate(96,302)"/>
<path d="M0 0 C2.475 0.99 2.475 0.99 5 2 C4.01 3.485 4.01 3.485 3 5 C1.0625 4.625 1.0625 4.625 -1 4 C-1.33 3.34 -1.66 2.68 -2 2 C-1.34 2 -0.68 2 0 2 C0 1.34 0 0.68 0 0 Z " fill="#2B4643" transform="translate(167,303)"/>
<path d="M0 0 C2.6875 0.3125 2.6875 0.3125 5 1 C5 2.32 5 3.64 5 5 C2.36 4.34 -0.28 3.68 -3 3 C-1.8125 1.4375 -1.8125 1.4375 0 0 Z " fill="#38524D" transform="translate(368,292)"/>
<path d="M0 0 C0.66 0 1.32 0 2 0 C1.67 3.63 1.34 7.26 1 11 C-1.26609984 6.46780033 -0.92735976 4.82227075 0 0 Z " fill="#082826" transform="translate(161,287)"/>
<path d="M0 0 C0.66 0 1.32 0 2 0 C2.33 2.31 2.66 4.62 3 7 C1.68 6.34 0.36 5.68 -1 5 C-0.67 3.35 -0.34 1.7 0 0 Z " fill="#CEC180" transform="translate(176,180)"/>
<path d="M0 0 C5.41538462 -0.36923077 5.41538462 -0.36923077 8.375 1.5 C8.91125 1.995 9.4475 2.49 10 3 C6.67212881 4.1092904 5.3006216 4.01557588 2 3 C1.34 2.01 0.68 1.02 0 0 Z " fill="#5A674A" transform="translate(272,106)"/>
<path d="M0 0 C1.32 0 2.64 0 4 0 C3.67 2.31 3.34 4.62 3 7 C1 4 1 4 1 3 C0.34 3 -0.32 3 -1 3 C-0.67 2.01 -0.34 1.02 0 0 Z " fill="#BFB578" transform="translate(262,79)"/>
<path d="M0 0 C2.475 0.99 2.475 0.99 5 2 C5 2.99 5 3.98 5 5 C3.68 4.67 2.36 4.34 1 4 C0.67 2.68 0.34 1.36 0 0 Z " fill="#183533" transform="translate(162,300)"/>
<path d="M0 0 C-0.66 0 -1.32 0 -2 0 C-2.33 0.99 -2.66 1.98 -3 3 C-3.33 2.67 -3.66 2.34 -4 2 C-5.51469448 1.76807135 -7.03754562 1.58784762 -8.5625 1.4375 C-9.38878906 1.35371094 -10.21507812 1.26992188 -11.06640625 1.18359375 C-11.70449219 1.12300781 -12.34257812 1.06242187 -13 1 C-13 0.67 -13 0.34 -13 0 C-11.58456585 -0.19658808 -10.16755969 -0.38187546 -8.75 -0.5625 C-7.96109375 -0.66691406 -7.1721875 -0.77132813 -6.359375 -0.87890625 C-3.99467126 -1.00027349 -2.2488963 -0.69633257 0 0 Z " fill="#324D48" transform="translate(342,280)"/>
<path d="M0 0 C2.125 0.375 2.125 0.375 4 1 C3.67 1.66 3.34 2.32 3 3 C2.01 3.33 1.02 3.66 0 4 C-1.20882096 6.00016466 -1.20882096 6.00016466 -2 8 C-2.125 5.125 -2.125 5.125 -2 2 C-1.34 1.34 -0.68 0.68 0 0 Z " fill="#4D5C44" transform="translate(318,194)"/>
<path d="M0 0 C0 0.66 0 1.32 0 2 C-2.31 3.32 -4.62 4.64 -7 6 C-7.99 5.34 -8.98 4.68 -10 4 C-8.71086513 3.32845067 -7.41859796 2.66291141 -6.125 2 C-5.40570313 1.62875 -4.68640625 1.2575 -3.9453125 0.875 C-2 0 -2 0 0 0 Z " fill="#707754" transform="translate(250,93)"/>
<path d="M0 0 C1.32 0 2.64 0 4 0 C4 1.32 4 2.64 4 4 C2.68 4.33 1.36 4.66 0 5 C0 3.35 0 1.7 0 0 Z " fill="#596D6A" transform="translate(276,373)"/>
<path d="M0 0 C0.66 0.33 1.32 0.66 2 1 C1.67 1.66 1.34 2.32 1 3 C1.66 3.33 2.32 3.66 3 4 C2.67 4.66 2.34 5.32 2 6 C2.66 6.33 3.32 6.66 4 7 C2.68 6.67 1.36 6.34 0 6 C-0.38218767 4.34385343 -0.71395102 2.67542976 -1 1 C-0.67 0.67 -0.34 0.34 0 0 Z " fill="#5D706D" transform="translate(363,349)"/>
<path d="M0 0 C0.33 0 0.66 0 1 0 C1.33 2.97 1.66 5.94 2 9 C0.68 8.67 -0.64 8.34 -2 8 C-2 7.34 -2 6.68 -2 6 C-1.34 6 -0.68 6 0 6 C0 4.02 0 2.04 0 0 Z " fill="#2A4642" transform="translate(216,300)"/>
<path d="M0 0 C-0.33 1.32 -0.66 2.64 -1 4 C-3.31 3.67 -5.62 3.34 -8 3 C-3.5 0 -3.5 0 0 0 Z " fill="#39524E" transform="translate(289,303)"/>
<path d="M0 0 C2.475 0.99 2.475 0.99 5 2 C4.67 2.99 4.34 3.98 4 5 C3.01 5 2.02 5 1 5 C1 4.34 1 3.68 1 3 C0.34 3 -0.32 3 -1 3 C-0.67 2.01 -0.34 1.02 0 0 Z " fill="#B6BBB6" transform="translate(439,289)"/>
<path d="M0 0 C1.70884005 1.62339805 3.37446717 3.29319053 5 5 C5 5.66 5 6.32 5 7 C1.83884224 5.63016497 1.0072908 5.0109362 -1 2 C-0.67 1.34 -0.34 0.68 0 0 Z " fill="#4E5E45" transform="translate(229,202)"/>
<path d="M0 0 C0.33 0 0.66 0 1 0 C1 1.65 1 3.3 1 5 C2.32 5.33 3.64 5.66 5 6 C2.69 6 0.38 6 -2 6 C-1.34 4.02 -0.68 2.04 0 0 Z " fill="#556348" transform="translate(355,179)"/>
<path d="M0 0 C1.32 0.33 2.64 0.66 4 1 C1.36 2.98 -1.28 4.96 -4 7 C-2.92598892 4.08482708 -2.22189824 2.22189824 0 0 Z " fill="#354939" transform="translate(355,170)"/>
<path d="M0 0 C0.66 0 1.32 0 2 0 C4.09230769 4.43076923 4.09230769 4.43076923 3.625 7.3125 C3.41875 7.869375 3.2125 8.42625 3 9 C3 8.01 3 7.02 3 6 C2.34 6 1.68 6 1 6 C0.67 4.02 0.34 2.04 0 0 Z " fill="#3A4E3C" transform="translate(288,118)"/>
<path d="M0 0 C0.33 0 0.66 0 1 0 C1.33 2.31 1.66 4.62 2 7 C0.35 7 -1.3 7 -3 7 C-3 6.01 -3 5.02 -3 4 C-2.01 4 -1.02 4 0 4 C0 2.68 0 1.36 0 0 Z " fill="#ACA670" transform="translate(263,107)"/>
</svg>
